<?xml version="1.0" standalone="no"?>
<!DOCTYPE svg PUBLIC "-//W3C//DTD SVG 20010904//EN"
 "http://www.w3.org/TR/2001/REC-SVG-20010904/DTD/svg10.dtd">
<svg version="1.0" xmlns="http://www.w3.org/2000/svg"
 width="403.000000pt" height="403.000000pt" viewBox="0 0 403.000000 403.000000"
 preserveAspectRatio="xMidYMid meet">
<metadata>
Created by potrace 1.11, written by Peter Selinger 2001-2013
</metadata>
<g transform="translate(0.000000,403.000000) scale(0.100000,-0.100000)"
fill="#000000" stroke="none">
<path d="M1730 3931 c0 -6 4 -13 10 -16 6 -3 7 1 4 9 -7 18 -14 21 -14 7z"/>
<path d="M1735 3890 c3 -5 8 -10 11 -10 2 0 4 5 4 10 0 6 -5 10 -11 10 -5 0
-7 -4 -4 -10z"/>
<path d="M1745 3839 c-4 -6 -5 -12 -2 -15 2 -3 7 2 10 11 7 17 1 20 -8 4z"/>
<path d="M1970 3810 c0 -5 5 -10 11 -10 5 0 7 5 4 10 -3 6 -8 10 -11 10 -2 0
-4 -4 -4 -10z"/>
<path d="M1976 3743 c-6 -14 -5 -15 5 -6 7 7 10 15 7 18 -3 3 -9 -2 -12 -12z"/>
<path d="M1973 3700 c-1 -11 1 -22 5 -24 4 -2 8 7 8 20 1 13 -1 24 -5 24 -4 0
-7 -9 -8 -20z"/>
<path d="M2275 3690 c-3 -5 -1 -10 4 -10 6 0 11 5 11 10 0 6 -2 10 -4 10 -3 0
-8 -4 -11 -10z"/>
<path d="M1772 3670 c0 -14 2 -19 5 -12 2 6 2 18 0 25 -3 6 -5 1 -5 -13z"/>
<path d="M1450 3645 c6 -8 9 -19 5 -24 -4 -7 0 -8 10 -5 14 6 14 8 -1 25 -20
22 -32 26 -14 4z"/>
<path d="M2268 3653 c7 -3 16 -2 19 1 4 3 -2 6 -13 5 -11 0 -14 -3 -6 -6z"/>
<path d="M1773 3622 c0 -12 5 -22 9 -22 11 0 10 12 -2 30 -7 12 -9 10 -7 -8z"/>
<path d="M2261 3624 c0 -11 3 -14 6 -6 3 7 2 16 -1 19 -3 4 -6 -2 -5 -13z"/>
<path d="M1970 3613 c0 -5 5 -15 10 -23 7 -12 9 -10 7 8 -1 19 -17 33 -17 15z"/>
<path d="M2260 3591 c0 -7 -5 -9 -12 -5 -7 5 -8 3 -3 -5 5 -9 10 -10 18 -2 6
6 8 14 4 18 -4 3 -7 1 -7 -6z"/>
<path d="M1475 3579 c-4 -6 -5 -12 -2 -15 2 -3 7 2 10 11 7 17 1 20 -8 4z"/>
<path d="M1969 3553 c-13 -16 -12 -17 4 -4 9 7 17 15 17 17 0 8 -8 3 -21 -13z"/>
<path d="M2245 3550 c-3 -6 1 -7 9 -4 18 7 21 14 7 14 -6 0 -13 -4 -16 -10z"/>
<path d="M1975 3530 c-3 -5 -1 -10 4 -10 6 0 11 5 11 10 0 6 -2 10 -4 10 -3 0
-8 -4 -11 -10z"/>
<path d="M1780 3526 c0 -2 7 -7 16 -10 8 -3 12 -2 9 4 -6 10 -25 14 -25 6z"/>
<path d="M1495 3511 c-3 -5 -2 -12 3 -15 5 -3 9 1 9 9 0 17 -3 19 -12 6z"/>
<path d="M930 3501 c0 -6 4 -13 10 -16 6 -3 7 1 4 9 -7 18 -14 21 -14 7z"/>
<path d="M1975 3499 c-4 -6 -5 -12 -2 -15 2 -3 7 2 10 11 7 17 1 20 -8 4z"/>
<path d="M2235 3501 c-3 -5 0 -13 6 -17 7 -4 9 -3 5 4 -3 5 0 13 6 15 9 4 10
6 1 6 -6 1 -14 -3 -18 -8z"/>
<path d="M2714 3502 c3 -5 0 -13 -6 -15 -9 -4 -10 -6 -1 -6 17 -1 25 16 12 25
-7 4 -9 3 -5 -4z"/>
<path d="M1505 3470 c-3 -5 -1 -10 4 -10 6 0 11 5 11 10 0 6 -2 10 -4 10 -3 0
-8 -4 -11 -10z"/>
<path d="M1979 3458 c-6 -21 -5 -37 2 -32 5 3 7 9 4 14 -3 4 1 11 7 13 10 4
10 6 1 6 -7 1 -13 0 -14 -1z"/>
<path d="M980 3430 c8 -5 20 -10 25 -10 6 0 3 5 -5 10 -8 5 -19 10 -25 10 -5
0 -3 -5 5 -10z"/>
<path d="M1520 3422 c9 -19 30 -23 30 -5 0 4 -3 3 -7 0 -3 -4 -12 1 -20 11
-13 15 -13 15 -3 -6z"/>
<path d="M1790 3436 c0 -2 7 -7 16 -10 8 -3 12 -2 9 4 -6 10 -25 14 -25 6z"/>
<path d="M664 3412 c4 -3 14 -7 22 -8 9 -1 13 0 10 4 -4 3 -14 7 -22 8 -9 1
-13 0 -10 -4z"/>
<path d="M1797 3409 c7 -7 15 -10 18 -7 3 3 -2 9 -12 12 -14 6 -15 5 -6 -5z"/>
<path d="M2223 3402 c0 -12 5 -22 9 -22 11 0 10 12 -2 30 -7 12 -9 10 -7 -8z"/>
<path d="M2670 3409 c0 -5 5 -7 10 -4 6 3 10 8 10 11 0 2 -4 4 -10 4 -5 0 -10
-5 -10 -11z"/>
<path d="M710 3371 c0 -6 4 -12 8 -15 5 -3 9 1 9 9 0 8 -4 15 -9 15 -4 0 -8
-4 -8 -9z"/>
<path d="M881 3364 c-86 -23 -132 -47 -193 -103 -90 -82 -133 -176 -144 -311
-3 -41 -7 -81 -9 -87 -3 -7 1 -13 7 -13 6 0 9 -3 5 -6 -7 -8 20 -99 43 -144
42 -81 141 -150 234 -165 22 -3 41 -7 43 -9 6 -6 -36 -126 -64 -183 -27 -56
-33 -59 -79 -43 -16 5 -47 11 -69 13 -22 1 -46 7 -54 11 -9 6 -12 5 -8 -1 4
-6 -6 -10 -22 -11 -50 -1 -155 -43 -208 -83 -103 -78 -154 -192 -149 -337 4
-115 40 -185 140 -269 14 -12 26 -20 26 -18 0 2 21 -3 47 -11 73 -22 169 -18
229 10 84 39 147 132 169 249 4 20 10 35 14 32 4 -2 8 1 8 8 0 8 -20 13 -51
15 -38 2 -48 0 -40 -8 9 -9 8 -26 -3 -68 -19 -76 -54 -133 -105 -173 -37 -30
-48 -33 -102 -33 -104 2 -149 18 -197 71 -40 42 -58 85 -68 160 -33 232 114
413 334 413 60 0 125 -15 125 -29 0 -20 -50 -35 -106 -32 -60 2 -62 2 -72 -27
-9 -27 -8 -31 11 -36 37 -10 75 -7 116 10 34 14 45 14 87 1 27 -8 57 -13 66
-12 33 6 76 -89 109 -239 24 -112 33 -215 32 -391 -1 -278 -1 -275 -25 -284
l-22 -8 22 -5 c12 -4 22 -13 22 -22 0 -11 10 -16 34 -16 l33 0 27 113 c37 154
45 178 59 171 9 -5 9 -4 1 5 -9 9 -8 24 3 59 8 26 16 52 17 57 4 20 29 90 35
100 3 6 6 15 7 22 5 28 70 186 114 273 59 118 96 176 157 250 59 70 107 106
174 130 59 20 115 13 163 -21 l28 -21 21 20 c17 18 18 23 7 37 -26 32 -81 53
-143 54 l-28 1 25 33 c27 35 86 161 86 183 0 31 -17 10 -54 -66 -40 -83 -92
-140 -127 -140 -55 0 -77 40 -75 135 1 51 4 60 20 63 11 3 37 15 57 28 20 12
40 20 45 16 4 -4 4 -1 0 5 -4 7 2 22 13 34 52 56 65 144 24 174 -22 16 -70 9
-106 -17 -57 -41 -114 -193 -115 -307 0 -82 15 -126 55 -161 l33 -29 -33 -22
c-100 -70 -221 -248 -311 -459 -15 -36 -31 -74 -36 -85 -5 -11 -19 -49 -30
-85 -12 -36 -29 -71 -38 -78 -10 -8 -11 -12 -3 -12 13 0 14 0 -20 -110 -13
-41 -24 -77 -24 -80 -1 -3 -5 -29 -10 -58 -4 -29 -12 -55 -17 -58 -6 -4 -6 9
-2 33 9 48 9 308 0 391 -15 136 -47 264 -83 329 -13 23 -23 44 -23 47 0 3 17
6 38 6 57 0 141 28 199 67 167 111 274 377 259 648 -6 105 -7 113 -26 185 -42
157 -147 273 -288 317 -65 20 -177 23 -241 7z m256 -60 c100 -48 177 -165 208
-319 16 -80 21 -244 10 -320 -9 -64 -17 -99 -23 -110 -4 -5 -8 -19 -9 -30 -6
-38 -42 -123 -72 -172 -28 -43 -67 -87 -113 -121 -27 -21 -119 -53 -170 -59
-46 -5 -49 -4 -95 41 l-47 47 36 72 c20 40 43 97 52 127 21 72 27 79 62 83 33
4 105 50 145 94 32 34 69 101 69 125 0 10 10 28 22 40 16 16 17 20 5 15 -13
-5 -17 0 -17 21 0 31 -45 132 -58 132 -5 0 -17 -9 -27 -20 -17 -18 -17 -21 3
-61 25 -51 25 -147 -1 -196 -25 -47 -76 -91 -125 -107 l-43 -15 6 42 c4 23 12
74 20 112 7 39 16 99 19 135 4 36 11 83 16 105 13 49 17 70 24 115 3 19 12 54
20 78 16 45 15 47 -28 54 -17 2 -23 -9 -41 -65 -11 -38 -24 -66 -28 -63 -4 3
-3 1 2 -5 4 -6 4 -31 -1 -57 -14 -78 -28 -156 -48 -287 -23 -145 -30 -165 -54
-165 -76 0 -174 68 -210 145 -48 101 -56 211 -24 330 23 83 52 136 105 188
113 112 268 139 410 71z m537 -480 c-1 -45 -38 -109 -56 -98 -6 4 -8 2 -4 -4
5 -9 -42 -52 -58 -52 -9 0 3 46 27 105 40 98 93 126 91 49z m-859 -624 c20
-22 11 -25 -33 -14 -18 5 -20 9 -11 20 15 19 23 18 44 -6z"/>
<path d="M1060 3310 c8 -5 20 -10 25 -10 6 0 3 5 -5 10 -8 5 -19 10 -25 10 -5
0 -3 -5 5 -10z"/>
<path d="M800 3266 c0 -2 7 -7 16 -10 8 -3 12 -2 9 4 -6 10 -25 14 -25 6z"/>
<path d="M1107 3249 c7 -7 15 -10 18 -7 3 3 -2 9 -12 12 -14 6 -15 5 -6 -5z"/>
<path d="M830 3235 c0 -13 20 -35 32 -35 4 0 8 5 8 11 0 5 -4 8 -9 4 -6 -3
-14 3 -20 12 -6 10 -11 13 -11 8z"/>
<path d="M1130 3220 c-9 -6 -10 -10 -3 -10 6 0 15 5 18 10 8 12 4 12 -15 0z"/>
<path d="M1151 3183 c7 -12 15 -20 18 -17 3 2 -3 12 -13 22 -17 16 -18 16 -5
-5z"/>
<path d="M902 3146 c7 -8 15 -12 17 -11 5 6 -10 25 -20 25 -5 0 -4 -6 3 -14z"/>
<path d="M1181 3144 c0 -11 3 -14 6 -6 3 7 2 16 -1 19 -3 4 -6 -2 -5 -13z"/>
<path d="M1210 3121 c0 -7 -5 -9 -12 -5 -7 5 -8 3 -3 -5 5 -9 10 -10 18 -2 6
6 8 14 4 18 -4 3 -7 1 -7 -6z"/>
<path d="M693 3015 c0 -8 4 -12 9 -9 5 3 6 10 3 15 -9 13 -12 11 -12 -6z"/>
<path d="M716 2988 c3 -5 10 -6 15 -3 13 9 11 12 -6 12 -8 0 -12 -4 -9 -9z"/>
<path d="M746 2973 c-6 -14 -5 -15 5 -6 7 7 10 15 7 18 -3 3 -9 -2 -12 -12z"/>
<path d="M1068 2963 c7 -3 16 -2 19 1 4 3 -2 6 -13 5 -11 0 -14 -3 -6 -6z"/>
<path d="M831 2903 c-1 -18 13 -23 29 -11 12 8 12 9 -2 5 -9 -3 -19 -1 -22 6
-3 9 -5 9 -5 0z"/>
<path d="M875 2860 c10 -11 20 -20 23 -20 3 0 -3 9 -13 20 -10 11 -20 20 -23
20 -3 0 3 -9 13 -20z"/>
<path d="M1231 2784 c0 -11 3 -14 6 -6 3 7 2 16 -1 19 -3 4 -6 -2 -5 -13z"/>
<path d="M653 2775 c0 -8 4 -12 9 -9 5 3 6 10 3 15 -9 13 -12 11 -12 -6z"/>
<path d="M676 2748 c3 -5 10 -6 15 -3 13 9 11 12 -6 12 -8 0 -12 -4 -9 -9z"/>
<path d="M1014 2752 c4 -3 14 -7 22 -8 9 -1 13 0 10 4 -4 3 -14 7 -22 8 -9 1
-13 0 -10 -4z"/>
<path d="M1244 2752 c4 -3 14 -7 22 -8 9 -1 13 0 10 4 -4 3 -14 7 -22 8 -9 1
-13 0 -10 -4z"/>
<path d="M712 2726 c7 -8 15 -10 16 -5 2 5 9 6 15 2 7 -3 9 -2 4 2 -4 5 -17
10 -28 12 -16 2 -18 1 -7 -11z"/>
<path d="M1055 2731 c-3 -5 -2 -12 3 -15 5 -3 9 1 9 9 0 17 -3 19 -12 6z"/>
<path d="M755 2709 c-5 -8 -5 -11 0 -7 4 4 13 0 20 -9 10 -13 13 -14 20 -2 5
8 5 11 0 7 -4 -4 -13 0 -20 9 -10 13 -13 14 -20 2z"/>
<path d="M834 2665 c1 -8 6 -18 11 -22 4 -5 5 -2 0 6 -6 11 -4 13 8 8 23 -9
21 0 -2 13 -15 7 -19 7 -17 -5z"/>
<path d="M1241 2594 c0 -11 3 -14 6 -6 3 7 2 16 -1 19 -3 4 -6 -2 -5 -13z"/>
<path d="M1270 2571 c0 -6 4 -12 8 -15 5 -3 9 1 9 9 0 8 -4 15 -9 15 -4 0 -8
-4 -8 -9z"/>
<path d="M1065 2519 c-4 -6 -5 -12 -2 -15 2 -3 7 2 10 11 7 17 1 20 -8 4z"/>
<path d="M1087 2489 c7 -7 15 -10 18 -7 3 3 -2 9 -12 12 -14 6 -15 5 -6 -5z"/>
<path d="M1151 2470 c-9 -5 -4 -7 13 -7 29 0 32 2 13 10 -8 3 -20 2 -26 -3z"/>
<path d="M1009 2347 c6 -8 7 -18 3 -22 -4 -5 -1 -5 6 -1 10 6 10 11 1 22 -6 8
-14 14 -16 14 -3 0 0 -6 6 -13z"/>
<path d="M1082 2310 c7 -10 14 -18 15 -16 6 6 -9 36 -18 36 -5 0 -4 -9 3 -20z"/>
<path d="M870 2250 c0 -6 7 -10 15 -10 8 0 15 2 15 4 0 2 -7 6 -15 10 -8 3
-15 1 -15 -4z"/>
<path d="M916 2228 c3 -5 10 -6 15 -3 13 9 11 12 -6 12 -8 0 -12 -4 -9 -9z"/>
<path d="M959 2238 c-6 -21 -5 -38 1 -38 5 0 8 9 7 20 -1 17 -5 26 -8 18z"/>
<path d="M1000 2210 c-12 -7 -10 -9 7 -7 12 0 19 5 17 9 -6 10 -6 10 -24 -2z"/>
<path d="M1611 2754 c0 -11 3 -14 6 -6 3 7 2 16 -1 19 -3 4 -6 -2 -5 -13z"/>
<path d="M1535 3371 c-3 -5 0 -13 6 -17 7 -4 9 -3 5 4 -3 5 0 13 6 15 9 4 10
6 1 6 -6 1 -14 -3 -18 -8z"/>
<path d="M1807 3374 c7 -3 9 -13 6 -22 -4 -14 -3 -14 5 -2 12 16 7 30 -11 29
-9 0 -9 -2 0 -5z"/>
<path d="M2647 3369 c7 -7 15 -10 18 -7 3 3 -2 9 -12 12 -14 6 -15 5 -6 -5z"/>
<path d="M3020 3361 c0 -6 4 -13 10 -16 6 -3 7 1 4 9 -7 18 -14 21 -14 7z"/>
<path d="M3340 3360 c-9 -6 -10 -10 -3 -10 6 0 15 5 18 10 8 12 4 12 -15 0z"/>
<path d="M735 3340 c-3 -6 1 -7 9 -4 18 7 21 14 7 14 -6 0 -13 -4 -16 -10z"/>
<path d="M1555 3318 c4 -13 12 -27 17 -33 5 -6 5 1 -1 16 -5 15 -7 30 -4 33 4
3 1 6 -6 6 -8 0 -10 -8 -6 -22z"/>
<path d="M1820 3330 c-9 -6 -10 -10 -3 -10 6 0 15 5 18 10 8 12 4 12 -15 0z"/>
<path d="M3006 3332 c-2 -4 -1 -14 4 -22 7 -11 9 -9 7 8 -1 24 -3 26 -11 14z"/>
<path d="M1970 3309 c0 -5 5 -7 10 -4 6 3 10 8 10 11 0 2 -4 4 -10 4 -5 0 -10
-5 -10 -11z"/>
<path d="M2202 3297 c10 -8 14 -18 10 -22 -4 -5 -1 -5 6 -1 17 10 15 14 -10
26 -21 10 -21 10 -6 -3z"/>
<path d="M1822 3270 c0 -14 2 -19 5 -12 2 6 2 18 0 25 -3 6 -5 1 -5 -13z"/>
<path d="M2593 3255 c0 -8 4 -12 9 -9 5 3 6 10 3 15 -9 13 -12 11 -12 -6z"/>
<path d="M2195 3250 c-3 -5 -1 -10 4 -10 6 0 11 5 11 10 0 6 -2 10 -4 10 -3 0
-8 -4 -11 -10z"/>
<path d="M2953 3246 c1 -6 -4 -10 -11 -8 -8 1 -11 -2 -7 -8 5 -8 13 -6 26 6
23 21 23 21 5 21 -8 0 -14 -5 -13 -11z"/>
<path d="M2570 3231 c0 -6 4 -13 10 -16 6 -3 7 1 4 9 -7 18 -14 21 -14 7z"/>
<path d="M2187 3209 c7 -7 15 -10 18 -7 3 3 -2 9 -12 12 -14 6 -15 5 -6 -5z"/>
<path d="M2910 3216 c0 -2 7 -7 16 -10 8 -3 12 -2 9 4 -6 10 -25 14 -25 6z"/>
<path d="M3196 3203 c-6 -14 -5 -15 5 -6 7 7 10 15 7 18 -3 3 -9 -2 -12 -12z"/>
<path d="M1820 3206 c0 -2 7 -7 16 -10 8 -3 12 -2 9 4 -6 10 -25 14 -25 6z"/>
<path d="M1412 3186 c7 -8 15 -12 17 -11 5 6 -10 25 -20 25 -5 0 -4 -6 3 -14z"/>
<path d="M2895 3190 c-3 -5 -1 -10 4 -10 6 0 11 5 11 10 0 6 -2 10 -4 10 -3 0
-8 -4 -11 -10z"/>
<path d="M2175 3170 c3 -5 8 -10 11 -10 2 0 4 5 4 10 0 6 -5 10 -11 10 -5 0
-7 -4 -4 -10z"/>
<path d="M3150 3170 c0 -5 7 -7 15 -4 8 4 15 8 15 10 0 2 -7 4 -15 4 -8 0 -15
-4 -15 -10z"/>
<path d="M2535 3161 c-3 -5 -2 -12 3 -15 5 -3 9 1 9 9 0 17 -3 19 -12 6z"/>
<path d="M1435 3130 c3 -5 8 -10 11 -10 2 0 4 5 4 10 0 6 -5 10 -11 10 -5 0
-7 -4 -4 -10z"/>
<path d="M2527 3129 c7 -7 15 -10 18 -7 3 3 -2 9 -12 12 -14 6 -15 5 -6 -5z"/>
<path d="M3095 3110 c-3 -6 1 -7 9 -4 18 7 21 14 7 14 -6 0 -13 -4 -16 -10z"/>
<path d="M1838 3103 c7 -3 16 -2 19 1 4 3 -2 6 -13 5 -11 0 -14 -3 -6 -6z"/>
<path d="M2836 3085 c-11 -8 -17 -17 -14 -20 2 -3 13 4 23 15 21 23 18 25 -9
5z"/>
<path d="M2502 3085 c4 -4 3 -14 -3 -21 -7 -9 -6 -14 3 -20 7 -4 10 -4 6 1 -4
4 -3 14 3 21 7 9 6 14 -3 20 -7 4 -10 4 -6 -1z"/>
<path d="M1851 3058 c5 -10 11 -18 12 -18 2 0 3 8 3 18 0 10 -6 19 -13 19 -8
0 -9 -6 -2 -19z"/>
<path d="M1489 3028 c7 -9 9 -23 5 -30 -6 -10 -4 -11 7 0 11 10 10 15 -6 30
-17 15 -18 15 -6 0z"/>
<path d="M2470 3036 c0 -2 7 -7 16 -10 8 -3 12 -2 9 4 -6 10 -25 14 -25 6z"/>
<path d="M2781 3024 c0 -11 3 -14 6 -6 3 7 2 16 -1 19 -3 4 -6 -2 -5 -13z"/>
<path d="M1860 3010 c-9 -6 -10 -10 -3 -10 6 0 15 5 18 10 8 12 4 12 -15 0z"/>
<path d="M1966 3012 c-3 -5 1 -9 9 -9 8 0 12 4 9 9 -3 4 -7 8 -9 8 -2 0 -6 -4
-9 -8z"/>
<path d="M3375 3010 c3 -5 8 -10 11 -10 2 0 4 5 4 10 0 6 -5 10 -11 10 -5 0
-7 -4 -4 -10z"/>
<path d="M2980 2995 c0 -8 4 -15 10 -15 5 0 7 7 4 15 -4 8 -8 15 -10 15 -2 0
-4 -7 -4 -15z"/>
<path d="M2765 2990 c3 -5 8 -10 11 -10 2 0 4 5 4 10 0 6 -5 10 -11 10 -5 0
-7 -4 -4 -10z"/>
<path d="M1510 2973 c5 -2 8 -9 5 -13 -3 -5 -1 -11 4 -14 5 -4 8 2 7 11 -2 9
-8 18 -15 19 -6 1 -7 0 -1 -3z"/>
<path d="M2150 2970 c0 -5 5 -10 11 -10 5 0 7 5 4 10 -3 6 -8 10 -11 10 -2 0
-4 -4 -4 -10z"/>
<path d="M3306 2955 c-11 -8 -15 -15 -9 -15 6 0 16 7 23 15 16 19 11 19 -14 0z"/>
<path d="M1960 2946 c0 -2 7 -7 16 -10 8 -3 12 -2 9 4 -6 10 -25 14 -25 6z"/>
<path d="M2146 2937 c3 -10 9 -15 12 -12 3 3 0 11 -7 18 -10 9 -11 8 -5 -6z"/>
<path d="M405 2929 c-4 -6 -5 -12 -2 -15 2 -3 7 2 10 11 7 17 1 20 -8 4z"/>
<path d="M1535 2930 c-3 -5 -1 -10 4 -10 6 0 11 5 11 10 0 6 -2 10 -4 10 -3 0
-8 -4 -11 -10z"/>
<path d="M2426 2917 c3 -10 9 -15 12 -12 3 3 0 11 -7 18 -10 9 -11 8 -5 -6z"/>
<path d="M2913 2915 c0 -7 6 -11 14 -8 7 3 13 6 13 8 0 2 -6 5 -13 8 -8 3 -14
-1 -14 -8z"/>
<path d="M1975 2909 c-4 -6 -4 -13 -1 -16 3 -4 6 -1 6 6 0 7 5 9 12 5 7 -4 8
-3 4 4 -9 15 -13 15 -21 1z"/>
<path d="M3240 2911 c0 -7 -5 -9 -12 -5 -7 5 -8 3 -3 -5 5 -9 10 -10 18 -2 6
6 8 14 4 18 -4 3 -7 1 -7 -6z"/>
<path d="M450 2889 c0 -5 5 -7 10 -4 6 3 10 8 10 11 0 2 -4 4 -10 4 -5 0 -10
-5 -10 -11z"/>
<path d="M2400 2891 c0 -6 4 -13 10 -16 6 -3 7 1 4 9 -7 18 -14 21 -14 7z"/>
<path d="M2886 2892 c-3 -5 1 -9 9 -9 8 0 12 4 9 9 -3 4 -7 8 -9 8 -2 0 -6 -4
-9 -8z"/>
<path d="M480 2870 c18 -12 30 -13 30 -2 0 4 -10 9 -22 9 -18 2 -20 0 -8 -7z"/>
<path d="M3167 2853 c3 -7 6 -13 8 -13 2 0 5 6 8 13 3 8 -1 14 -8 14 -7 0 -11
-6 -8 -14z"/>
<path d="M2390 2849 c0 -5 5 -7 10 -4 6 3 10 8 10 11 0 2 -4 4 -10 4 -5 0 -10
-5 -10 -11z"/>
<path d="M2835 2851 c-3 -5 -2 -12 3 -15 5 -3 9 1 9 9 0 17 -3 19 -12 6z"/>
<path d="M2375 2821 c-3 -5 -2 -12 3 -15 5 -3 9 1 9 9 0 17 -3 19 -12 6z"/>
<path d="M2352 2788 c-7 -7 -12 -16 -12 -21 0 -5 7 -1 16 8 9 9 14 18 12 20
-2 3 -10 -1 -16 -7z"/>
<path d="M2610 2789 c0 -5 5 -7 10 -4 6 3 10 8 10 11 0 2 -4 4 -10 4 -5 0 -10
-5 -10 -11z"/>
<path d="M2790 2789 c0 -5 5 -7 10 -4 6 3 10 8 10 11 0 2 -4 4 -10 4 -5 0 -10
-5 -10 -11z"/>
<path d="M3480 2786 c0 -2 7 -7 16 -10 8 -3 12 -2 9 4 -6 10 -25 14 -25 6z"/>
<path d="M2587 2769 c7 -7 15 -10 18 -7 3 3 -2 9 -12 12 -14 6 -15 5 -6 -5z"/>
<path d="M3060 2770 c-9 -6 -10 -10 -3 -10 6 0 15 5 18 10 8 12 4 12 -15 0z"/>
<path d="M3454 2769 c-4 -7 -3 -9 4 -5 5 3 13 0 15 -6 4 -9 6 -10 6 -1 1 17
-16 25 -25 12z"/>
<path d="M2122 2750 c0 -14 2 -19 5 -12 2 6 2 18 0 25 -3 6 -5 1 -5 -13z"/>
<path d="M2775 2760 c-4 -6 -11 -7 -17 -4 -7 4 -8 2 -4 -5 6 -9 11 -9 22 0 14
11 18 19 10 19 -3 0 -8 -5 -11 -10z"/>
<path d="M2566 2747 c3 -10 9 -15 12 -12 3 3 0 11 -7 18 -10 9 -11 8 -5 -6z"/>
<path d="M2541 2723 c-1 -17 16 -25 25 -12 4 7 3 9 -4 5 -5 -3 -13 0 -15 6 -4
9 -6 10 -6 1z"/>
<path d="M2335 2709 c-4 -6 -5 -12 -2 -15 2 -3 7 2 10 11 7 17 1 20 -8 4z"/>
<path d="M2713 2703 c0 -10 4 -10 16 -1 9 7 18 13 20 15 2 1 -5 1 -16 0 -11 0
-20 -7 -20 -14z"/>
<path d="M2527 2689 c7 -7 15 -10 18 -7 3 3 -2 9 -12 12 -14 6 -15 5 -6 -5z"/>
<path d="M3304 2689 c-4 -7 -3 -9 4 -5 5 3 13 0 15 -6 4 -9 6 -10 6 -1 1 17
-16 25 -25 12z"/>
<path d="M3348 2693 c7 -3 16 -2 19 1 4 3 -2 6 -13 5 -11 0 -14 -3 -6 -6z"/>
<path d="M2507 2661 c-4 -17 -3 -21 5 -13 5 5 8 16 6 23 -3 8 -7 3 -11 -10z"/>
<path d="M2680 2670 c-8 -5 -10 -10 -5 -10 6 0 17 5 25 10 8 5 11 10 5 10 -5
0 -17 -5 -25 -10z"/>
<path d="M1650 2649 c0 -5 5 -7 10 -4 6 3 10 8 10 11 0 2 -4 4 -10 4 -5 0 -10
-5 -10 -11z"/>
<path d="M3235 2650 c-3 -5 -1 -10 4 -10 6 0 11 5 11 10 0 6 -2 10 -4 10 -3 0
-8 -4 -11 -10z"/>
<path d="M3265 2650 c-3 -6 1 -7 9 -4 18 7 21 14 7 14 -6 0 -13 -4 -16 -10z"/>
<path d="M1666 2632 c-3 -5 1 -9 9 -9 8 0 12 4 9 9 -3 4 -7 8 -9 8 -2 0 -6 -4
-9 -8z"/>
<path d="M3215 2619 c-4 -6 -5 -12 -2 -15 2 -3 7 2 10 11 7 17 1 20 -8 4z"/>
<path d="M385 2590 c-3 -5 -1 -10 4 -10 6 0 11 5 11 10 0 6 -2 10 -4 10 -3 0
-8 -4 -11 -10z"/>
<path d="M3155 2590 c3 -5 8 -10 11 -10 2 0 4 5 4 10 0 6 -5 10 -11 10 -5 0
-7 -4 -4 -10z"/>
<path d="M3115 2579 c-4 -6 -5 -12 -2 -15 2 -3 7 2 10 11 7 17 1 20 -8 4z"/>
<path d="M440 2568 c-12 -8 -12 -9 2 -5 9 3 19 1 22 -6 3 -9 5 -9 5 0 1 18
-13 23 -29 11z"/>
<path d="M2826 2567 c3 -10 9 -15 12 -12 3 3 0 11 -7 18 -10 9 -11 8 -5 -6z"/>
<path d="M2795 2561 c-6 -11 13 -26 22 -17 4 3 1 6 -6 6 -7 0 -9 5 -6 10 3 6
4 10 1 10 -3 0 -7 -4 -11 -9z"/>
<path d="M3085 2550 c3 -5 8 -10 11 -10 2 0 4 5 4 10 0 6 -5 10 -11 10 -5 0
-7 -4 -4 -10z"/>
<path d="M2755 2530 c-3 -5 -1 -10 4 -10 6 0 11 5 11 10 0 6 -2 10 -4 10 -3 0
-8 -4 -11 -10z"/>
<path d="M3005 2510 c-10 -11 -16 -22 -14 -24 2 -2 12 7 22 20 22 29 17 32 -8
4z"/>
<path d="M3575 2510 c-3 -5 -1 -10 4 -10 6 0 11 5 11 10 0 6 -2 10 -4 10 -3 0
-8 -4 -11 -10z"/>
<path d="M3605 2510 c-3 -6 1 -7 9 -4 18 7 21 14 7 14 -6 0 -13 -4 -16 -10z"/>
<path d="M628 2493 c7 -3 16 -2 19 1 4 3 -2 6 -13 5 -11 0 -14 -3 -6 -6z"/>
<path d="M2955 2490 c-3 -5 -1 -10 4 -10 6 0 11 5 11 10 0 6 -2 10 -4 10 -3 0
-8 -4 -11 -10z"/>
<path d="M685 2470 c-3 -6 1 -7 9 -4 18 7 21 14 7 14 -6 0 -13 -4 -16 -10z"/>
<path d="M2930 2470 c0 -5 5 -10 11 -10 5 0 7 5 4 10 -3 6 -8 10 -11 10 -2 0
-4 -4 -4 -10z"/>
<path d="M3470 2470 c0 -5 5 -10 11 -10 5 0 7 5 4 10 -3 6 -8 10 -11 10 -2 0
-4 -4 -4 -10z"/>
<path d="M752 2444 c10 -10 20 -16 22 -13 3 3 -5 11 -17 18 -21 13 -21 12 -5
-5z"/>
<path d="M3414 2449 c-3 -6 -3 -13 0 -16 3 -4 6 -1 6 5 0 6 7 9 15 6 8 -4 15
-4 15 -1 0 11 -30 16 -36 6z"/>
<path d="M2878 2443 c7 -3 16 -2 19 1 4 3 -2 6 -13 5 -11 0 -14 -3 -6 -6z"/>
<path d="M797 2429 c7 -7 15 -10 18 -7 3 3 -2 9 -12 12 -14 6 -15 5 -6 -5z"/>
<path d="M2815 2411 c-9 -15 15 -25 28 -12 9 9 7 10 -7 5 -13 -5 -17 -4 -12 4
4 7 5 12 2 12 -3 0 -7 -4 -11 -9z"/>
<path d="M3310 2410 c-13 -8 -12 -10 3 -10 9 0 17 5 17 10 0 12 -1 12 -20 0z"/>
<path d="M301 2394 c0 -11 3 -14 6 -6 3 7 2 16 -1 19 -3 4 -6 -2 -5 -13z"/>
<path d="M3266 2388 c3 -5 10 -6 15 -3 13 9 11 12 -6 12 -8 0 -12 -4 -9 -9z"/>
<path d="M336 2381 c-4 -5 3 -7 14 -4 23 6 26 13 6 13 -8 0 -17 -4 -20 -9z"/>
<path d="M2795 2381 c-3 -6 -15 -8 -27 -6 -11 3 -18 1 -14 -2 12 -13 35 -11
47 3 6 8 9 14 6 14 -3 0 -8 -4 -12 -9z"/>
<path d="M3235 2380 c-3 -5 -1 -10 4 -10 6 0 11 5 11 10 0 6 -2 10 -4 10 -3 0
-8 -4 -11 -10z"/>
<path d="M375 2370 c-3 -5 -1 -10 4 -10 6 0 11 5 11 10 0 6 -2 10 -4 10 -3 0
-8 -4 -11 -10z"/>
<path d="M3186 2372 c-2 -4 4 -8 14 -8 10 0 16 4 14 8 -3 4 -9 8 -14 8 -5 0
-11 -4 -14 -8z"/>
<path d="M435 2361 c-3 -5 0 -13 6 -17 7 -4 9 -3 5 4 -3 5 0 13 6 15 9 4 10 6
1 6 -6 1 -14 -3 -18 -8z"/>
<path d="M466 2352 c-3 -4 4 -9 15 -9 23 -2 25 3 4 10 -8 4 -16 3 -19 -1z"/>
<path d="M515 2341 c-3 -5 -2 -12 3 -15 5 -3 9 1 9 9 0 17 -3 19 -12 6z"/>
<path d="M3576 2317 c3 -10 9 -15 12 -12 3 3 0 11 -7 18 -10 9 -11 8 -5 -6z"/>
<path d="M2853 2309 c-30 -11 -89 -118 -107 -194 -1 -5 -9 -37 -16 -70 -8 -33
-21 -66 -29 -73 -9 -8 -10 -11 -3 -7 6 3 12 5 12 3 0 -2 -5 -30 -10 -63 -6
-33 -15 -92 -20 -132 -5 -40 -13 -80 -18 -90 -87 -179 -127 -218 -192 -183
-30 16 -51 119 -34 165 4 8 21 22 38 29 72 30 146 125 146 187 0 41 -27 69
-65 69 -66 0 -130 -81 -166 -209 -37 -135 -118 -274 -134 -229 -14 41 -2 135
50 407 9 46 18 97 20 115 3 17 7 42 10 56 11 55 35 196 35 208 0 21 -53 10
-56 -11 -1 -10 -9 -52 -18 -95 -8 -42 -18 -95 -21 -117 -3 -22 -8 -46 -10 -53
-3 -7 -7 -34 -11 -60 -6 -49 -23 -92 -24 -61 0 22 -32 49 -59 49 -58 0 -109
-73 -156 -220 -97 -302 -211 -335 -122 -35 51 173 46 255 -15 255 -42 0 -96
-47 -119 -102 -20 -48 -28 -31 -14 29 14 61 10 71 -28 68 -22 -2 -26 -16 -51
-198 -7 -50 -31 -99 -63 -128 l-26 -24 7 30 c4 17 11 47 15 67 14 62 6 175
-15 205 -25 39 -45 52 -77 53 -54 0 -96 -35 -129 -108 -13 -28 -24 -42 -33
-38 -16 6 -18 2 -40 -114 -16 -83 -3 -187 27 -220 59 -63 134 -44 204 51 20
27 39 49 44 49 5 0 23 12 41 27 28 24 31 25 20 5 -6 -12 -16 -45 -21 -74 -6
-29 -13 -61 -16 -70 -4 -15 1 -18 29 -18 l34 0 12 73 c19 117 41 198 75 272
32 70 88 131 108 119 16 -10 3 -97 -31 -212 -49 -165 -47 -231 9 -250 43 -16
91 22 126 100 20 45 31 49 28 9 -5 -74 27 -123 73 -115 37 7 67 37 93 90 23
51 29 54 28 17 -1 -58 3 -74 22 -93 17 -17 24 -18 45 -8 26 12 87 95 99 136 9
29 23 29 21 0 -3 -38 17 -86 47 -115 36 -34 91 -36 136 -5 29 21 92 111 92
132 0 5 5 12 11 16 9 5 10 -1 5 -20 -4 -17 0 -50 9 -82 12 -42 22 -57 41 -64
43 -17 74 9 123 105 l31 59 0 -52 c0 -54 19 -107 42 -115 24 -8 63 13 87 48
28 41 34 41 22 -2 -11 -37 -7 -43 30 -43 28 0 30 4 44 105 20 139 68 263 128
330 30 33 38 37 47 25 14 -22 13 -53 -2 -44 -10 6 -10 4 0 -8 11 -14 8 -33
-18 -120 -40 -130 -46 -167 -41 -250 1 -22 9 -29 46 -41 24 -9 44 -13 43 -9
-1 4 11 21 27 38 17 17 40 51 52 75 l23 44 0 -32 c0 -18 0 -35 0 -38 -1 -14
32 -65 47 -73 25 -15 68 5 97 43 14 19 26 38 26 44 0 5 5 13 12 17 8 5 9 2 4
-12 -4 -10 -10 -32 -12 -49 -2 -16 -6 -39 -8 -51 -5 -25 -48 -74 -65 -74 -6 0
-11 -5 -11 -12 0 -6 -11 -25 -23 -42 -69 -91 -59 -196 18 -196 24 0 39 7 54
26 20 26 46 95 56 149 3 17 7 44 10 60 13 74 19 89 47 121 16 19 35 31 41 27
5 -3 7 -1 3 5 -3 6 5 28 20 49 44 65 76 134 69 152 -5 12 -12 5 -29 -29 -41
-83 -137 -217 -122 -170 3 8 7 33 10 55 4 32 25 145 52 280 2 11 7 40 10 66 6
44 5 45 -20 45 -19 0 -28 -6 -32 -23 l-6 -23 -20 25 c-37 48 -97 25 -146 -57
-13 -20 -37 -78 -54 -130 -54 -165 -116 -268 -147 -248 -15 9 -18 71 -4 93 3
6 8 24 10 41 2 16 13 61 24 100 31 103 36 182 14 206 -20 23 -50 25 -81 7 -24
-14 -74 -70 -74 -84 0 -5 -7 -18 -15 -29 -13 -17 -14 -16 -5 13 4 18 10 49 12
70 3 38 -1 41 -50 34 -5 0 -14 -38 -21 -83 -20 -144 -22 -152 -42 -208 -22
-58 -74 -150 -93 -162 -15 -10 -23 1 -29 39 -6 38 0 46 24 32 11 -5 19 -6 19
-1 0 6 -9 12 -21 15 -18 5 -20 11 -15 44 9 58 35 203 46 253 15 71 13 79 -15
75 -14 -1 -27 -4 -30 -6 -2 -2 -11 -42 -21 -89 -41 -208 -129 -388 -174 -360
-24 15 -23 211 2 253 25 43 122 239 124 252 8 49 49 173 55 170 4 -3 11 -1 14
5 4 6 1 9 -7 8 -9 -2 -13 11 -14 47 -1 78 -17 100 -61 84z m28 -69 c8 -46 -42
-250 -62 -250 -6 0 -7 -4 -4 -10 6 -9 -64 -184 -71 -177 -4 3 12 91 29 162 2
11 7 38 11 60 9 53 42 160 63 208 16 36 28 39 34 7z m-1345 -345 c21 -33 20
-139 -4 -230 -20 -77 -35 -89 -77 -61 -77 50 -77 215 -1 291 32 32 61 32 82 0z
m1032 -3 c6 -39 -18 -90 -60 -132 -23 -22 -47 -40 -55 -40 -16 0 -16 -5 1 51
28 90 68 152 95 147 9 -2 17 -13 19 -26z m-361 -15 c25 -58 -19 -249 -78 -342
-29 -46 -61 -59 -73 -29 -20 52 9 230 54 328 32 72 76 91 97 43z m1412 -4 c6
-14 10 -27 9 -28 -2 -1 -12 -7 -23 -14 l-20 -11 20 2 c18 3 20 -2 17 -40 -4
-61 -46 -189 -81 -244 -32 -51 -65 -63 -74 -29 -5 22 -1 145 6 176 16 68 31
111 53 155 37 73 69 85 93 33z m-2249 -197 c0 -35 41 -89 83 -109 20 -10 37
-22 37 -27 0 -5 -12 -22 -26 -39 -42 -51 -108 -36 -99 22 2 9 -1 17 -7 17 -5
0 -8 34 -7 84 2 47 7 82 11 80 4 -3 8 -15 8 -28z m2169 -386 c-5 -36 -11 -74
-13 -85 -3 -11 -5 -23 -5 -27 -1 -4 -8 -14 -17 -23 -12 -12 -19 -13 -30 -4
-19 16 -17 56 6 107 17 38 61 102 67 98 1 -1 -2 -31 -8 -66z"/>
<path d="M3575 1839 c-4 -6 -5 -12 -2 -15 2 -3 7 2 10 11 7 17 1 20 -8 4z"/>
<path d="M1410 1561 c0 -7 -5 -9 -12 -5 -7 5 -8 3 -3 -5 5 -9 10 -10 18 -2 6
6 8 14 4 18 -4 3 -7 1 -7 -6z"/>
<path d="M3520 2306 c0 -2 7 -7 16 -10 8 -3 12 -2 9 4 -6 10 -25 14 -25 6z"/>
<path d="M2950 2291 c0 -6 4 -12 8 -15 5 -3 9 1 9 9 0 8 -4 15 -9 15 -4 0 -8
-4 -8 -9z"/>
<path d="M3270 2250 c0 -5 5 -10 10 -10 6 0 10 5 10 10 0 6 -4 10 -10 10 -5 0
-10 -4 -10 -10z"/>
<path d="M3210 2229 c0 -5 5 -7 10 -4 6 3 10 8 10 11 0 2 -4 4 -10 4 -5 0 -10
-5 -10 -11z"/>
<path d="M3116 2213 c-6 -14 -5 -15 5 -6 7 7 10 15 7 18 -3 3 -9 -2 -12 -12z"/>
<path d="M3051 2203 c-1 -17 16 -25 25 -12 4 7 3 9 -4 5 -5 -3 -13 0 -15 6 -4
9 -6 10 -6 1z"/>
<path d="M1190 2170 c0 -5 5 -10 11 -10 5 0 7 5 4 10 -3 6 -8 10 -11 10 -2 0
-4 -4 -4 -10z"/>
<path d="M2715 2132 c3 -3 -3 -11 -13 -19 -15 -13 -15 -13 5 -3 28 13 37 27
18 27 -8 0 -13 -3 -10 -5z"/>
<path d="M2970 2100 c-24 -24 -26 -53 -5 -70 22 -18 65 12 65 45 0 37 -34 51
-60 25z"/>
<path d="M205 2099 c-3 -4 2 -6 10 -5 21 3 28 13 10 13 -9 0 -18 -4 -20 -8z"/>
<path d="M360 2090 c-8 -5 -10 -10 -5 -10 6 0 17 5 25 10 8 5 11 10 5 10 -5 0
-17 -5 -25 -10z"/>
<path d="M414 2088 c-3 -5 -3 -12 0 -15 3 -4 6 -2 6 4 0 6 9 9 20 6 11 -3 20
-3 20 0 0 10 -40 15 -46 5z"/>
<path d="M544 2074 c-18 -14 -18 -14 6 -3 31 14 36 19 24 19 -6 0 -19 -7 -30
-16z"/>
<path d="M593 2076 c0 -15 22 -15 34 0 4 5 4 6 -1 2 -5 -4 -14 -3 -21 2 -8 7
-12 5 -12 -4z"/>
<path d="M478 2073 c7 -3 16 -2 19 1 4 3 -2 6 -13 5 -11 0 -14 -3 -6 -6z"/>
<path d="M690 2070 c0 -5 5 -10 11 -10 5 0 7 5 4 10 -3 6 -8 10 -11 10 -2 0
-4 -4 -4 -10z"/>
<path d="M1073 2025 c0 -6 8 -11 18 -11 9 0 15 5 12 11 -2 7 -10 12 -17 12 -7
0 -13 -5 -13 -12z"/>
<path d="M3485 2010 c-16 -7 -17 -9 -3 -9 9 -1 20 4 23 9 7 11 7 11 -20 0z"/>
<path d="M3524 2004 c-18 -14 -18 -15 4 -4 12 6 22 13 22 15 0 8 -5 6 -26 -11z"/>
<path d="M3576 2007 c3 -10 9 -15 12 -12 3 3 0 11 -7 18 -10 9 -11 8 -5 -6z"/>
<path d="M3630 2010 c0 -6 7 -10 15 -10 8 0 15 2 15 4 0 2 -7 6 -15 10 -8 3
-15 1 -15 -4z"/>
<path d="M3676 2012 c-3 -5 1 -9 9 -9 8 0 12 4 9 9 -3 4 -7 8 -9 8 -2 0 -6 -4
-9 -8z"/>
<path d="M3451 1994 c0 -11 3 -14 6 -6 3 7 2 16 -1 19 -3 4 -6 -2 -5 -13z"/>
<path d="M3310 1995 c0 -7 30 -13 34 -7 3 4 -4 9 -15 9 -10 1 -19 0 -19 -2z"/>
<path d="M3370 1989 c0 -5 5 -7 10 -4 6 3 10 8 10 11 0 2 -4 4 -10 4 -5 0 -10
-5 -10 -11z"/>
<path d="M633 1895 c0 -8 4 -15 9 -15 4 0 8 4 8 9 0 6 -4 12 -8 15 -5 3 -9 -1
-9 -9z"/>
<path d="M670 1900 c8 -5 20 -10 25 -10 6 0 3 5 -5 10 -8 5 -19 10 -25 10 -5
0 -3 -5 5 -10z"/>
<path d="M433 1885 c0 -8 4 -12 9 -9 5 3 6 10 3 15 -9 13 -12 11 -12 -6z"/>
<path d="M600 1890 c-9 -6 -10 -10 -3 -10 6 0 15 5 18 10 8 12 4 12 -15 0z"/>
<path d="M310 1879 c0 -5 5 -7 10 -4 6 3 10 8 10 11 0 2 -4 4 -10 4 -5 0 -10
-5 -10 -11z"/>
<path d="M46 1868 c3 -5 10 -6 15 -3 13 9 11 12 -6 12 -8 0 -12 -4 -9 -9z"/>
<path d="M3390 1850 c0 -6 7 -10 15 -10 8 0 15 2 15 4 0 2 -7 6 -15 10 -8 3
-15 1 -15 -4z"/>
<path d="M3742 1815 c3 -3 16 -8 28 -10 12 -2 20 -1 16 2 -4 4 -16 8 -28 10
-12 2 -19 1 -16 -2z"/>
<path d="M3846 1808 c3 -5 10 -6 15 -3 13 9 11 12 -6 12 -8 0 -12 -4 -9 -9z"/>
<path d="M3940 1806 c0 -2 7 -7 16 -10 8 -3 12 -2 9 4 -6 10 -25 14 -25 6z"/>
<path d="M1146 1788 c3 -5 10 -6 15 -3 13 9 11 12 -6 12 -8 0 -12 -4 -9 -9z"/>
<path d="M1120 1770 c-9 -6 -10 -10 -3 -10 6 0 15 5 18 10 8 12 4 12 -15 0z"/>
<path d="M2855 1719 c-4 -6 -5 -12 -2 -15 2 -3 7 2 10 11 7 17 1 20 -8 4z"/>
<path d="M586 1661 c8 -8 43 -8 38 0 -2 4 -13 7 -24 6 -10 -1 -17 -3 -14 -6z"/>
<path d="M2750 1656 c0 -2 7 -7 16 -10 8 -3 12 -2 9 4 -6 10 -25 14 -25 6z"/>
<path d="M2813 1619 c-2 -23 3 -25 10 -4 4 8 3 16 -1 19 -4 3 -9 -4 -9 -15z"/>
<path d="M901 1584 c0 -11 3 -14 6 -6 3 7 2 16 -1 19 -3 4 -6 -2 -5 -13z"/>
<path d="M3315 1591 c-3 -5 -2 -12 3 -15 5 -3 9 1 9 9 0 17 -3 19 -12 6z"/>
<path d="M235 1580 c-3 -5 -1 -10 4 -10 6 0 11 5 11 10 0 6 -2 10 -4 10 -3 0
-8 -4 -11 -10z"/>
<path d="M865 1580 c-3 -6 1 -7 9 -4 18 7 21 14 7 14 -6 0 -13 -4 -16 -10z"/>
<path d="M811 1553 c-1 -17 16 -25 25 -12 4 7 3 9 -4 5 -5 -3 -13 0 -15 6 -4
9 -6 10 -6 1z"/>
<path d="M750 1536 c0 -2 7 -7 16 -10 8 -3 12 -2 9 4 -6 10 -25 14 -25 6z"/>
<path d="M1180 1526 c0 -2 7 -6 15 -10 8 -3 15 -1 15 4 0 6 -7 10 -15 10 -8 0
-15 -2 -15 -4z"/>
<path d="M707 1509 c7 -7 15 -10 18 -7 3 3 -2 9 -12 12 -14 6 -15 5 -6 -5z"/>
<path d="M635 1490 c-3 -5 -1 -10 4 -10 6 0 11 5 11 10 0 6 -2 10 -4 10 -3 0
-8 -4 -11 -10z"/>
<path d="M666 1491 c-4 -5 3 -7 14 -4 23 6 26 13 6 13 -8 0 -17 -4 -20 -9z"/>
<path d="M3108 1493 c7 -3 16 -2 19 1 4 3 -2 6 -13 5 -11 0 -14 -3 -6 -6z"/>
<path d="M3171 1483 c-1 -17 16 -25 25 -12 4 7 3 9 -4 5 -5 -3 -13 0 -15 6 -4
9 -6 10 -6 1z"/>
<path d="M595 1470 c-3 -6 1 -7 9 -4 18 7 21 14 7 14 -6 0 -13 -4 -16 -10z"/>
<path d="M527 1449 c7 -7 15 -10 18 -7 3 3 -2 9 -12 12 -14 6 -15 5 -6 -5z"/>
<path d="M1226 1435 c-11 -8 -15 -15 -9 -15 6 0 16 7 23 15 16 19 11 19 -14 0z"/>
<path d="M455 1430 c-3 -5 -1 -10 4 -10 6 0 11 5 11 10 0 6 -2 10 -4 10 -3 0
-8 -4 -11 -10z"/>
<path d="M490 1429 c0 -5 5 -7 10 -4 6 3 10 8 10 11 0 2 -4 4 -10 4 -5 0 -10
-5 -10 -11z"/>
<path d="M2596 1428 c3 -4 9 -8 15 -8 5 0 9 4 9 8 0 5 -7 9 -15 9 -8 0 -12 -4
-9 -9z"/>
<path d="M3318 1418 c13 -16 56 -22 46 -6 -3 5 -10 6 -15 2 -5 -3 -18 0 -27 8
-15 12 -16 11 -4 -4z"/>
<path d="M2476 1395 c4 -8 10 -15 16 -15 5 0 6 -5 2 -12 -5 -7 -3 -8 5 -4 9 6
8 13 -5 27 -21 23 -25 24 -18 4z"/>
<path d="M2630 1396 c0 -2 7 -7 16 -10 8 -3 12 -2 9 4 -6 10 -25 14 -25 6z"/>
<path d="M3403 1385 c0 -8 4 -12 9 -9 5 3 6 10 3 15 -9 13 -12 11 -12 -6z"/>
<path d="M1133 1365 c0 -8 4 -12 9 -9 5 3 6 10 3 15 -9 13 -12 11 -12 -6z"/>
<path d="M3455 1371 c-3 -5 -2 -12 3 -15 5 -3 9 1 9 9 0 17 -3 19 -12 6z"/>
<path d="M2505 1350 c-3 -6 1 -7 9 -4 18 7 21 14 7 14 -6 0 -13 -4 -16 -10z"/>
<path d="M2720 1346 c0 -2 7 -7 16 -10 8 -3 12 -2 9 4 -6 10 -25 14 -25 6z"/>
<path d="M797 1313 c-10 -9 -9 -23 1 -23 5 0 9 7 9 15 0 17 -1 18 -10 8z"/>
<path d="M1346 1312 c-3 -5 1 -9 9 -9 8 0 12 4 9 9 -3 4 -7 8 -9 8 -2 0 -6 -4
-9 -8z"/>
<path d="M2530 1316 c0 -2 7 -7 16 -10 8 -3 12 -2 9 4 -6 10 -25 14 -25 6z"/>
<path d="M2574 1296 c3 -16 11 -34 17 -40 9 -8 10 -8 5 1 -4 7 -9 23 -11 34
-3 12 -7 24 -10 28 -4 3 -4 -7 -1 -23z"/>
<path d="M1126 1252 c10 -82 22 -114 37 -105 7 3 4 -3 -6 -14 -9 -11 -14 -23
-10 -27 5 -4 3 -6 -4 -4 -7 2 -28 -15 -47 -37 l-35 -40 48 -22 c26 -12 67 -24
91 -25 42 -3 45 -1 46 22 1 14 5 33 9 43 6 14 3 16 -11 11 -18 -6 -18 -6 -1 7
11 9 20 34 24 67 3 28 10 52 15 52 5 0 6 5 2 12 -4 6 -3 8 3 5 13 -8 76 3 68
11 -7 7 -34 13 -58 13 -9 0 -15 4 -13 8 3 4 -1 8 -8 8 -9 0 -12 -7 -9 -16 5
-14 4 -14 -8 0 -17 19 -94 51 -103 42 -3 -4 -6 -2 -6 4 0 6 -6 13 -14 16 -12
5 -14 -2 -10 -31z m80 -19 c-8 -8 -66 -12 -62 -4 2 3 18 7 36 7 17 1 29 -1 26
-3z m-23 -38 c-3 -9 -8 -14 -10 -11 -3 3 -2 9 2 15 9 16 15 13 8 -4z m81 -7
c-3 -4 -11 -5 -19 -1 -21 7 -19 12 4 10 11 0 18 -5 15 -9z m-26 -33 c-3 -3 -9
2 -12 12 -6 14 -5 15 5 6 7 -7 10 -15 7 -18z m2 -45 c12 -7 10 -9 -8 -7 -12 0
-22 5 -22 9 0 11 12 10 30 -2z m-15 -29 c3 -5 2 -12 -3 -15 -5 -3 -9 1 -9 9 0
17 3 19 12 6z m-31 -13 c-3 -4 -9 -8 -15 -8 -5 0 -9 4 -9 8 0 5 7 9 15 9 8 0
12 -4 9 -9z m-46 -43 c-3 -3 -9 2 -12 12 -6 14 -5 15 5 6 7 -7 10 -15 7 -18z
m-23 -3 c-3 -3 -11 0 -18 7 -9 10 -8 11 6 5 10 -3 15 -9 12 -12z m71 -10 c-17
-16 -18 -16 -5 5 7 12 15 20 18 17 3 -2 -3 -12 -13 -22z"/>
<path d="M2869 1283 c-1 -4 -1 -11 -1 -14 1 -8 -31 -5 -46 4 -8 5 -10 3 -6 -6
2 -7 -1 -14 -8 -15 -7 0 -40 -9 -73 -20 -33 -10 -68 -18 -78 -16 -36 5 -5 -15
32 -21 42 -7 48 -17 57 -100 8 -63 10 -74 16 -81 4 -3 4 -12 1 -20 -3 -8 1
-14 8 -15 33 -3 65 4 71 15 6 8 8 8 8 -1 0 -14 82 19 88 35 1 5 -17 31 -40 57
-24 26 -43 51 -42 54 2 23 18 61 25 61 5 0 9 5 9 11 0 5 -5 7 -12 3 -7 -4 -8
-3 -4 5 13 20 16 60 6 66 -5 3 -11 3 -11 -2z m-134 -73 c-3 -5 -12 -10 -18
-10 -7 0 -6 4 3 10 19 12 23 12 15 0z m32 -5 c0 -8 -4 -12 -9 -9 -5 3 -6 10
-3 15 9 13 12 11 12 -6z m45 4 c2 -2 1 -3 -1 -2 -2 1 -11 -6 -20 -15 -9 -10
-12 -12 -8 -5 5 6 6 16 3 22 -3 5 1 8 9 7 8 -1 16 -4 17 -7z m38 -4 c-6 -8 -8
-20 -4 -27 5 -10 4 -10 -6 -1 -11 10 -11 15 0 28 7 8 15 15 17 15 3 0 0 -7 -7
-15z m-30 -29 c0 -2 -8 -10 -17 -17 -16 -13 -17 -12 -4 4 13 16 21 21 21 13z
m-36 -32 c3 -8 2 -12 -4 -9 -6 3 -10 10 -10 16 0 14 7 11 14 -7z m6 -31 c8 -1
21 4 30 10 13 10 13 10 1 -5 -15 -20 -45 -19 -64 2 -10 10 -9 11 3 4 8 -5 22
-9 30 -11z m56 -12 c-4 -5 0 -11 6 -14 7 -3 3 -4 -9 -4 -17 1 -19 4 -11 14 12
15 22 18 14 4z m-34 -53 c-9 -9 -7 -15 6 -25 15 -13 14 -13 -6 -3 -19 9 -21
14 -11 26 6 8 14 14 17 14 3 0 1 -5 -6 -12z m48 7 c0 -2 -6 -8 -13 -14 -10 -8
-14 -7 -14 2 0 8 6 14 14 14 7 0 13 -1 13 -2z m-46 -64 c-2 -3 -12 3 -22 13
-16 17 -16 18 5 5 12 -7 20 -15 17 -18z"/>
<path d="M735 1269 c-4 -6 -4 -13 -1 -16 3 -4 6 -1 6 6 0 7 5 9 12 5 7 -4 8
-3 4 4 -9 15 -13 15 -21 1z"/>
<path d="M1316 1268 c3 -5 10 -6 15 -3 13 9 11 12 -6 12 -8 0 -12 -4 -9 -9z"/>
<path d="M2420 1270 c8 -5 20 -10 25 -10 6 0 3 5 -5 10 -8 5 -19 10 -25 10 -5
0 -3 -5 5 -10z"/>
<path d="M1290 1256 c0 -2 7 -7 16 -10 8 -3 12 -2 9 4 -6 10 -25 14 -25 6z"/>
<path d="M673 1236 c0 -7 6 -13 14 -13 7 0 13 4 13 8 0 4 -6 9 -13 12 -8 3
-14 0 -14 -7z"/>
<path d="M2461 1235 c9 -11 15 -27 14 -36 -2 -9 3 -16 11 -16 9 0 11 4 4 12
-5 7 -8 14 -5 17 3 3 -5 13 -17 24 -23 19 -23 19 -7 -1z"/>
<path d="M1972 1231 c-11 -7 -11 -9 0 -14 9 -3 15 1 15 9 0 8 -1 14 -1 14 -1
0 -7 -4 -14 -9z"/>
<path d="M635 1210 c3 -5 8 -10 11 -10 2 0 4 5 4 10 0 6 -5 10 -11 10 -5 0 -7
-4 -4 -10z"/>
<path d="M3174 1206 c1 -8 5 -18 8 -22 4 -3 5 1 4 10 -1 8 -5 18 -8 22 -4 3
-5 -1 -4 -10z"/>
<path d="M900 1190 c-9 -6 -10 -10 -3 -10 6 0 15 5 18 10 8 12 4 12 -15 0z"/>
<path d="M2915 1191 c-6 -11 13 -26 22 -17 4 3 1 6 -6 6 -7 0 -9 5 -6 10 3 6
4 10 1 10 -3 0 -7 -4 -11 -9z"/>
<path d="M1376 1173 c-6 -14 -5 -15 5 -6 7 7 10 15 7 18 -3 3 -9 -2 -12 -12z"/>
<path d="M598 1173 c7 -3 16 -2 19 1 4 3 -2 6 -13 5 -11 0 -14 -3 -6 -6z"/>
<path d="M1970 1169 c0 -5 5 -7 10 -4 6 3 10 8 10 11 0 2 -4 4 -10 4 -5 0 -10
-5 -10 -11z"/>
<path d="M537 1163 c-10 -9 -9 -23 1 -23 5 0 9 7 9 15 0 17 -1 18 -10 8z"/>
<path d="M2497 1159 c7 -7 15 -10 18 -7 3 3 -2 9 -12 12 -14 6 -15 5 -6 -5z"/>
<path d="M3235 1160 c-3 -6 1 -7 9 -4 18 7 21 14 7 14 -6 0 -13 -4 -16 -10z"/>
<path d="M1564 1145 c-4 -8 -11 -12 -18 -8 -6 3 -7 2 -3 -2 14 -16 33 -13 33
6 0 23 -5 24 -12 4z"/>
<path d="M3270 1150 c0 -5 5 -10 11 -10 5 0 7 5 4 10 -3 6 -8 10 -11 10 -2 0
-4 -4 -4 -10z"/>
<path d="M836 1138 c3 -5 10 -6 15 -3 13 9 11 12 -6 12 -8 0 -12 -4 -9 -9z"/>
<path d="M496 1128 c3 -5 10 -6 15 -3 13 9 11 12 -6 12 -8 0 -12 -4 -9 -9z"/>
<path d="M1299 1128 c-2 -56 -11 -103 -20 -109 -8 -4 -7 -8 2 -12 9 -4 10 -6
2 -6 -7 -1 -17 -11 -23 -23 -10 -21 -10 -21 3 -5 20 25 28 21 17 -9 -8 -19 -7
-24 3 -18 9 5 9 4 0 -7 -29 -30 -12 -47 66 -64 27 -6 32 -4 26 6 -5 8 1 5 12
-6 11 -11 18 -24 15 -29 -3 -5 1 -5 9 0 17 10 89 12 82 2 -2 -5 4 -8 14 -9 19
-1 38 -3 93 -13 70 -12 117 -17 210 -22 225 -12 239 -11 243 5 4 14 5 14 6 1
1 -12 12 -14 49 -11 26 2 53 8 61 15 12 8 13 8 7 -1 -9 -16 -1 -16 26 -2 15 8
19 8 14 0 -9 -14 0 -14 25 -1 13 8 19 7 19 0 0 -6 5 -8 13 -3 18 11 67 10 67
-2 0 -5 4 -4 9 4 5 8 31 14 70 16 34 1 65 5 68 9 4 3 16 6 27 6 19 1 19 2 4
11 -10 5 -18 18 -18 27 0 11 3 13 8 6 4 -6 18 -17 32 -24 l25 -13 -20 24 c-16
19 -16 21 -2 10 14 -11 21 -11 29 -3 7 7 8 12 4 12 -5 0 -2 8 5 17 12 15 12
16 -6 9 -42 -17 -55 -18 -70 -2 -34 33 -22 75 24 83 65 11 81 11 74 0 -18 -28
-10 -43 20 -38 5 1 6 -3 2 -9 -3 -6 -11 -8 -16 -5 -5 4 -6 -7 -3 -24 4 -21 1
-35 -10 -47 -9 -9 -16 -18 -14 -19 4 -4 150 34 156 40 3 3 0 31 -6 63 -7 31
-14 75 -17 97 -12 90 -10 88 -56 74 -70 -20 -119 -27 -119 -15 0 6 -4 5 -9 -3
-5 -8 -20 -15 -33 -17 -12 -1 -24 -3 -25 -4 -6 -5 -26 -8 -69 -9 -33 -1 -43
-4 -38 -13 6 -10 3 -9 -8 0 -11 9 -23 10 -35 5 -10 -5 -49 -10 -88 -12 -38 -1
-76 -8 -84 -14 -11 -9 -13 -9 -8 0 9 15 -92 15 -112 -1 -11 -8 -13 -8 -8 0 5
8 -22 12 -95 13 -68 1 -105 6 -110 14 -6 9 -8 9 -8 0 0 -6 -12 -10 -27 -8 -16
2 -34 -2 -41 -8 -10 -8 -12 -7 -10 3 3 14 -9 16 -119 22 -45 2 -63 7 -63 17 0
11 -3 11 -15 1 -8 -7 -12 -17 -8 -24 3 -6 2 -7 -3 -3 -5 5 -9 13 -9 19 0 6
-16 12 -35 14 -54 5 -83 13 -93 23 -7 7 -15 4 -24 -7 -8 -9 -12 -12 -9 -6 3 7
-4 14 -17 18 -32 8 -37 8 -38 -6z m1376 -17 c-9 -8 -36 -10 -30 -2 2 4 11 8
20 8 8 0 13 -3 10 -6z m-1335 -15 c0 -2 -8 -10 -17 -17 -16 -13 -17 -12 -4 4
13 16 21 21 21 13z m111 -9 c-6 -8 -7 -18 -3 -22 4 -5 1 -5 -6 -1 -10 6 -10
11 -1 22 6 8 14 14 16 14 3 0 0 -6 -6 -13z m-18 -38 c38 -2 73 -12 82 -21 7
-7 2 -9 -17 -6 -16 3 -29 2 -29 -1 -1 -3 -3 -16 -4 -27 -1 -12 -6 -27 -10 -34
-6 -9 -4 -11 6 -5 12 8 12 6 0 -8 -7 -9 -10 -17 -6 -17 4 0 2 -6 -4 -13 -6 -8
-8 -17 -4 -20 3 -4 -1 -7 -11 -7 -15 0 -16 6 -10 48 4 26 11 58 15 70 7 18 6
23 -3 19 -7 -2 -21 5 -30 16 -22 25 -24 44 -2 23 8 -9 21 -16 27 -17z m61 19
c-3 -4 -9 -8 -15 -8 -5 0 -9 4 -9 8 0 5 7 9 15 9 8 0 12 -4 9 -9z m1140 1 c3
-3 -5 -5 -19 -5 -13 0 -22 3 -19 7 4 8 30 6 38 -2z m-1313 -26 c13 -16 12 -17
-3 -4 -17 13 -22 21 -14 21 2 0 10 -8 17 -17z m214 7 c3 -6 -1 -7 -9 -4 -18 7
-21 14 -7 14 6 0 13 -4 16 -10z m998 -7 c-4 -10 -9 -11 -19 -2 -18 15 -18 15
5 15 11 0 17 -5 14 -13z m37 2 c-5 -7 -9 -14 -7 -16 1 -2 0 -3 -2 -2 -2 2 -11
-3 -20 -9 -12 -10 -12 -7 2 8 9 11 15 23 12 26 -3 2 2 5 10 5 10 0 12 -4 5
-12z m135 -3 c-3 -3 -11 0 -18 7 -9 10 -8 11 6 5 10 -3 15 -9 12 -12z m-902
-7 c-3 -9 -8 -14 -10 -11 -3 3 -2 9 2 15 9 16 15 13 8 -4z m66 2 c8 -10 7 -14
-2 -14 -8 0 -14 6 -14 14 0 7 1 13 2 13 2 0 8 -6 14 -13z m86 -7 c10 -11 16
-20 13 -20 -3 0 -13 9 -23 20 -10 11 -16 20 -13 20 3 0 13 -9 23 -20z m131 5
c-1 -8 -5 -17 -8 -21 -5 -4 -4 16 1 34 3 9 9 -1 7 -13z m213 -1 c-7 -9 -14
-23 -15 -31 -2 -8 -5 -18 -8 -21 -4 -3 -5 4 -3 15 3 20 24 53 34 53 3 0 -1 -7
-8 -16z m87 -6 c0 -10 -1 -18 -2 -18 0 0 -8 8 -17 18 -15 16 -15 18 1 18 10 0
18 -8 18 -18z m-736 -13 c14 -19 14 -19 -2 -6 -10 7 -18 18 -18 24 0 6 1 8 3
6 1 -2 9 -13 17 -24z m70 20 c0 -2 -6 -8 -13 -14 -10 -8 -14 -7 -14 2 0 8 6
14 14 14 7 0 13 -1 13 -2z m500 -5 c-8 -5 -19 -10 -25 -10 -5 0 -3 5 5 10 8 5
20 10 25 10 6 0 3 -5 -5 -10z m282 -8 c11 -15 11 -15 -2 -5 -18 14 -45 12 -62
-5 -7 -7 -16 -12 -21 -12 -17 0 35 36 53 37 10 1 25 -6 32 -15z m103 0 c-3 -3
-11 0 -18 7 -9 10 -8 11 6 5 10 -3 15 -9 12 -12z m-1240 -2 c-3 -5 -12 -10
-18 -10 -7 0 -6 4 3 10 19 12 23 12 15 0z m218 -5 c-3 -9 -8 -14 -10 -11 -3 3
-2 9 2 15 9 16 15 13 8 -4z m28 -8 c-6 -8 -7 -18 -3 -22 4 -5 1 -5 -6 -1 -10
6 -10 11 -1 22 6 8 14 14 16 14 3 0 0 -6 -6 -13z m278 -4 c-7 -10 -14 -19 -15
-21 -1 -1 -7 4 -14 13 -11 13 -10 14 3 10 8 -4 18 -2 22 4 3 6 9 11 12 11 3 0
-1 -8 -8 -17z m239 0 c-6 -8 -13 -25 -14 -39 -2 -20 0 -23 10 -15 7 6 15 8 19
5 3 -3 14 -1 25 5 16 8 21 7 26 -5 3 -8 2 -13 -2 -10 -4 2 -15 -1 -25 -8 -16
-12 -15 -16 13 -54 26 -37 27 -41 9 -39 -10 1 -25 13 -31 28 -10 22 -16 26
-30 18 -13 -7 -15 -15 -9 -32 5 -12 13 -22 19 -22 6 0 13 -3 17 -7 12 -12 -23
-2 -39 11 -9 7 -16 10 -16 5 0 -5 -4 -4 -8 1 -4 6 -16 17 -26 25 -18 14 -18
13 -11 -8 6 -21 5 -23 -13 -13 -11 6 -23 7 -28 3 -5 -4 -3 0 3 8 6 8 10 41 9
73 -1 37 3 62 11 69 10 8 13 5 14 -11 2 -33 4 -39 12 -47 4 -4 7 -12 7 -18 0
-6 -5 -4 -10 4 -8 12 -10 9 -10 -11 0 -27 23 -55 37 -46 13 8 3 108 -10 100
-7 -3 -2 5 11 19 24 26 62 37 40 11z m47 7 c3 -6 -1 -7 -9 -4 -18 7 -21 14 -7
14 6 0 13 -4 16 -10z m80 1 c-9 -8 -36 -10 -30 -2 2 4 11 8 20 8 8 0 13 -3 10
-6z m130 -14 c4 5 5 0 2 -9 -7 -19 7 -25 18 -9 4 8 54 6 61 -2 1 -1 4 -21 8
-45 3 -24 8 -48 12 -53 3 -6 -4 -7 -20 -3 -21 5 -25 3 -20 -10 3 -9 2 -16 -3
-16 -5 0 -9 11 -9 24 0 15 5 22 13 19 9 -4 10 3 3 25 -4 17 -6 33 -2 36 3 3 0
7 -6 7 -45 5 -47 4 -50 -35 -3 -34 -1 -38 15 -32 17 6 17 5 1 -7 -10 -8 -15
-17 -11 -21 4 -4 -1 -4 -12 0 -14 6 -17 4 -13 -7 4 -10 -1 -15 -13 -15 -17 0
-17 1 -2 19 15 16 15 19 3 27 -9 6 -10 10 -3 10 15 0 10 29 -8 41 -11 7 -10 9
5 9 20 0 20 0 0 15 -10 8 -14 15 -9 14 25 -3 27 3 9 24 -19 22 -19 22 2 4 11
-9 24 -14 29 -10z m-621 -16 c-2 -3 -12 3 -22 13 -16 17 -16 18 5 5 12 -7 20
-15 17 -18z m176 14 c-7 -9 -15 -13 -18 -10 -3 3 -12 -1 -21 -8 -14 -11 -14
-10 -2 5 7 10 17 16 21 13 5 -3 11 -1 15 5 3 5 9 10 12 10 3 0 0 -7 -7 -15z
m730 11 c0 -2 -8 -10 -17 -17 -16 -13 -17 -12 -4 4 13 16 21 21 21 13z m-1310
-10 c0 -2 -8 -10 -17 -17 -16 -13 -17 -12 -4 4 13 16 21 21 21 13z m190 -6 c0
13 1 13 10 0 5 -8 10 -12 10 -7 0 4 11 1 23 -8 27 -18 34 -67 12 -85 -19 -16
-86 -15 -95 0 -6 10 -9 9 -12 0 -2 -7 -4 4 -5 25 -1 41 35 93 49 71 5 -7 8 -6
8 4z m411 -13 c-10 -9 -11 -8 -5 6 3 10 9 15 12 12 3 -3 0 -11 -7 -18z m365
-58 c1 -52 -2 -77 -8 -71 -6 6 -12 25 -13 44 -2 18 -4 33 -5 33 -1 0 -3 10 -4
23 -2 13 3 22 11 22 8 0 11 5 8 10 -4 6 -11 7 -17 4 -7 -4 -8 -2 -4 4 4 7 13
12 19 12 9 0 13 -25 13 -81z m-656 60 c-11 -8 -6 -9 23 -7 31 3 41 0 50 -16
11 -20 11 -63 1 -99 -5 -16 -7 -16 -21 -1 -10 9 -12 18 -7 22 14 9 13 54 -1
68 -16 16 -55 -18 -51 -43 2 -10 -2 -27 -10 -38 -16 -21 -16 -21 -18 52 0 28
2 49 5 47 4 -2 9 3 13 11 3 8 11 15 18 15 9 0 9 -3 -2 -11z m185 -19 c-3 -4
-1 -10 5 -12 5 -1 11 -14 12 -27 3 -21 -2 -26 -29 -32 -25 -5 -33 -3 -33 8 0
10 6 12 20 8 16 -5 20 -2 20 14 0 16 -6 21 -25 21 -24 0 -30 -9 -26 -39 2 -8
-3 -10 -11 -6 -7 3 -2 -3 10 -14 18 -16 28 -18 42 -11 22 12 34 0 16 -15 -13
-12 -31 -13 -42 -2 -4 4 -16 7 -26 7 -18 0 -22 8 -20 49 2 33 20 51 54 51 19
0 27 4 22 12 -4 7 -3 8 5 4 6 -4 9 -11 6 -16z m118 1 c13 8 15 6 11 -6 -4 -9
-1 -15 7 -15 9 0 14 -11 14 -29 0 -28 -1 -29 -50 -26 -42 3 -47 1 -32 -9 9 -7
28 -11 41 -9 16 3 25 -1 30 -14 6 -14 5 -15 -5 -6 -14 14 -53 -2 -44 -18 4 -5
1 -9 -5 -9 -6 0 -10 8 -8 18 2 12 -3 17 -18 16 -16 -1 -21 4 -19 20 0 12 -2
28 -6 37 -6 11 -1 20 16 29 13 7 22 17 18 23 -3 5 3 5 14 -1 12 -7 25 -7 36
-1z m303 -3 c3 -4 -3 -11 -14 -17 -15 -8 -19 -18 -15 -44 3 -24 -1 -38 -13
-48 -16 -13 -17 -12 -12 9 4 12 3 22 0 22 -6 0 -8 62 -3 80 1 7 49 5 57 -2z
m-946 -33 c-5 -7 -7 -14 -4 -18 3 -3 -1 -4 -10 -3 -8 1 -19 6 -23 10 -4 4 -1
6 7 4 8 -1 14 2 13 8 -1 6 5 11 12 11 10 0 12 -4 5 -12z m1400 9 c0 -8 -19
-13 -24 -6 -3 5 1 9 9 9 8 0 15 -2 15 -3z m-64 -30 c1 -9 0 -13 -4 -10 -3 4
-7 14 -8 22 -1 9 0 13 4 10 3 -4 7 -14 8 -22z m-1262 7 c-8 -8 -34 -10 -38 -2
-3 4 6 7 19 7 14 0 22 -2 19 -5z m301 -1 c3 -5 1 -10 -4 -10 -6 0 -11 5 -11
10 0 6 2 10 4 10 3 0 8 -4 11 -10z m500 0 c3 -5 1 -10 -4 -10 -6 0 -11 5 -11
10 0 6 2 10 4 10 3 0 8 -4 11 -10z m76 -13 c-10 -9 -11 -8 -5 6 3 10 9 15 12
12 3 -3 0 -11 -7 -18z m14 -27 c3 -6 -1 -7 -9 -4 -18 7 -21 14 -7 14 6 0 13
-4 16 -10z m-670 -28 c-3 -3 -11 0 -18 7 -9 10 -8 11 6 5 10 -3 15 -9 12 -12z
m865 14 c0 -2 -7 -7 -16 -10 -8 -3 -12 -2 -9 4 6 10 25 14 25 6z m-779 -23
c13 -16 12 -17 -3 -4 -17 13 -22 21 -14 21 2 0 10 -8 17 -17z m77 -8 c-3 -3
-9 2 -12 12 -6 14 -5 15 5 6 7 -7 10 -15 7 -18z m132 9 c0 -8 -19 -13 -24 -6
-3 5 1 9 9 9 8 0 15 -2 15 -3z"/>
<path d="M2120 935 c-10 -12 -10 -15 4 -15 9 0 16 7 16 15 0 8 -2 15 -4 15 -2
0 -9 -7 -16 -15z"/>
<path d="M1526 953 c-8 -21 4 -61 17 -59 43 8 54 17 49 41 -2 14 -7 26 -11 26
-32 7 -51 4 -55 -8z m40 -18 c-1 -8 -5 -17 -8 -21 -5 -4 -4 16 1 34 3 9 9 -1
7 -13z"/>
<path d="M1920 925 c-9 -11 -7 -15 14 -21 29 -7 47 1 40 19 -6 18 -40 19 -54
2z"/>
<path d="M3295 1131 c-3 -5 -2 -12 3 -15 5 -3 9 1 9 9 0 17 -3 19 -12 6z"/>
<path d="M3010 1126 c0 -2 8 -10 18 -17 15 -13 16 -12 3 4 -13 16 -21 21 -21
13z"/>
<path d="M465 1109 c-11 -16 -1 -19 13 -3 7 8 8 14 3 14 -5 0 -13 -5 -16 -11z"/>
<path d="M2336 1108 c3 -5 10 -6 15 -3 13 9 11 12 -6 12 -8 0 -12 -4 -9 -9z"/>
<path d="M3325 1110 c-3 -6 1 -7 9 -4 18 7 21 14 7 14 -6 0 -13 -4 -16 -10z"/>
<path d="M420 1091 c0 -6 4 -13 10 -16 6 -3 7 1 4 9 -7 18 -14 21 -14 7z"/>
<path d="M3393 1075 c0 -8 4 -12 9 -9 5 3 6 10 3 15 -9 13 -12 11 -12 -6z"/>
<path d="M3080 1061 c0 -6 4 -13 10 -16 6 -3 7 1 4 9 -7 18 -14 21 -14 7z"/>
<path d="M3410 1050 c0 -5 5 -10 11 -10 5 0 7 5 4 10 -3 6 -8 10 -11 10 -2 0
-4 -4 -4 -10z"/>
<path d="M692 1034 c-7 -8 -8 -14 -3 -14 10 0 25 19 20 25 -2 1 -10 -3 -17
-11z"/>
<path d="M3453 1035 c0 -8 4 -12 9 -9 5 3 6 10 3 15 -9 13 -12 11 -12 -6z"/>
<path d="M3110 1033 c0 -6 8 -17 18 -24 16 -13 16 -13 2 6 -8 11 -16 22 -17
24 -2 2 -3 0 -3 -6z"/>
<path d="M3477 1023 c-10 -9 -9 -23 1 -23 5 0 9 7 9 15 0 17 -1 18 -10 8z"/>
<path d="M1045 999 c-4 -6 -5 -12 -2 -15 2 -3 7 2 10 11 7 17 1 20 -8 4z"/>
<path d="M3165 989 c-4 -6 -5 -12 -2 -15 2 -3 7 2 10 11 7 17 1 20 -8 4z"/>
<path d="M3530 990 c0 -5 5 -10 11 -10 5 0 7 5 4 10 -3 6 -8 10 -11 10 -2 0
-4 -4 -4 -10z"/>
<path d="M2519 974 c-8 -10 -8 -14 0 -15 26 -3 30 -4 36 -11 4 -4 -4 -5 -19
-2 -30 5 -36 -12 -7 -21 30 -9 49 3 44 30 -6 27 -37 39 -54 19z"/>
<path d="M1024 972 c3 -5 0 -13 -6 -15 -9 -4 -10 -6 -1 -6 17 -1 25 16 12 25
-7 4 -9 3 -5 -4z"/>
<path d="M1220 950 c-9 -6 -10 -10 -3 -10 6 0 15 5 18 10 8 12 4 12 -15 0z"/>
<path d="M3198 953 c7 -3 16 -2 19 1 4 3 -2 6 -13 5 -11 0 -14 -3 -6 -6z"/>
<path d="M3233 935 c0 -8 4 -12 9 -9 5 3 6 10 3 15 -9 13 -12 11 -12 -6z"/>
<path d="M990 929 c0 -5 5 -7 10 -4 6 3 10 8 10 11 0 2 -4 4 -10 4 -5 0 -10
-5 -10 -11z"/>
<path d="M964 905 c-4 -8 -10 -12 -15 -9 -5 3 -6 -2 -3 -11 7 -18 7 -18 23 13
6 12 9 22 6 22 -3 0 -8 -7 -11 -15z"/>
<path d="M3250 912 c0 -5 7 -9 15 -9 8 0 12 4 9 9 -3 4 -9 8 -15 8 -5 0 -9 -4
-9 -8z"/>
<path d="M2876 897 c3 -10 9 -15 12 -12 3 3 0 11 -7 18 -10 9 -11 8 -5 -6z"/>
<path d="M1173 875 c-3 -9 -3 -18 -1 -21 3 -3 8 4 11 16 6 23 -1 27 -10 5z"/>
<path d="M2901 874 c0 -11 3 -14 6 -6 3 7 2 16 -1 19 -3 4 -6 -2 -5 -13z"/>
<path d="M931 864 c0 -11 3 -14 6 -6 3 7 2 16 -1 19 -3 4 -6 -2 -5 -13z"/>
<path d="M2926 852 c-3 -5 1 -9 9 -9 8 0 12 4 9 9 -3 4 -7 8 -9 8 -2 0 -6 -4
-9 -8z"/>
<path d="M1136 827 c3 -10 9 -15 12 -12 3 3 0 11 -7 18 -10 9 -11 8 -5 -6z"/>
<path d="M2725 830 c-3 -6 1 -7 9 -4 18 7 21 14 7 14 -6 0 -13 -4 -16 -10z"/>
<path d="M1395 819 c-4 -6 -5 -12 -2 -15 2 -3 7 2 10 11 7 17 1 20 -8 4z"/>
<path d="M1108 798 c-10 -10 -14 -18 -9 -18 10 0 36 29 30 34 -2 1 -12 -6 -21
-16z"/>
<path d="M2485 809 c-4 -6 -5 -12 -2 -15 2 -3 7 2 10 11 7 17 1 20 -8 4z"/>
<path d="M2749 814 c6 -3 7 -12 4 -20 -3 -8 -1 -14 5 -14 14 0 8 33 -7 36 -6
1 -7 0 -2 -2z"/>
<path d="M2948 813 c7 -3 16 -2 19 1 4 3 -2 6 -13 5 -11 0 -14 -3 -6 -6z"/>
<path d="M2975 799 c-4 -6 -5 -12 -2 -15 2 -3 7 2 10 11 7 17 1 20 -8 4z"/>
<path d="M1980 770 c-9 -6 -10 -10 -3 -10 6 0 15 5 18 10 8 12 4 12 -15 0z"/>
<path d="M2990 770 c0 -5 5 -10 10 -10 6 0 10 5 10 10 0 6 -4 10 -10 10 -5 0
-10 -4 -10 -10z"/>
<path d="M1355 760 c-3 -6 1 -7 9 -4 18 7 21 14 7 14 -6 0 -13 -4 -16 -10z"/>
<path d="M1070 750 c0 -5 5 -10 11 -10 5 0 7 5 4 10 -3 6 -8 10 -11 10 -2 0
-4 -4 -4 -10z"/>
<path d="M3016 743 c-6 -14 -5 -15 5 -6 7 7 10 15 7 18 -3 3 -9 -2 -12 -12z"/>
<path d="M2796 737 c3 -10 9 -15 12 -12 3 3 0 11 -7 18 -10 9 -11 8 -5 -6z"/>
<path d="M3036 732 c-3 -5 1 -9 9 -9 8 0 12 4 9 9 -3 4 -7 8 -9 8 -2 0 -6 -4
-9 -8z"/>
<path d="M780 721 c0 -6 4 -13 10 -16 6 -3 7 1 4 9 -7 18 -14 21 -14 7z"/>
<path d="M1349 713 c-13 -16 -12 -17 4 -4 16 13 21 21 13 21 -2 0 -10 -8 -17
-17z"/>
<path d="M2356 712 c-3 -5 1 -9 9 -9 8 0 12 4 9 9 -3 4 -7 8 -9 8 -2 0 -6 -4
-9 -8z"/>
<path d="M2817 705 c-4 -8 -3 -16 1 -19 4 -3 9 4 9 15 2 23 -3 25 -10 4z"/>
<path d="M1754 699 c-3 -5 4 -9 15 -9 19 0 21 -6 21 -55 0 -30 5 -55 10 -55 6
0 10 25 10 55 0 50 2 55 22 55 12 0 18 3 14 8 -11 10 -85 11 -92 1z"/>
<path d="M2009 703 c-1 -11 -1 -84 0 -106 1 -10 5 -16 10 -13 5 3 7 15 4 26
-7 28 15 54 34 39 7 -7 13 -19 12 -28 -3 -33 2 -47 10 -26 4 11 5 31 1 45 -5
19 -13 25 -33 25 -22 -1 -26 3 -22 22 2 13 -1 23 -6 23 -5 0 -9 -3 -10 -7z"/>
<path d="M755 691 c-6 -11 13 -26 22 -17 4 3 1 6 -6 6 -7 0 -9 5 -6 10 3 6 4
10 1 10 -3 0 -7 -4 -11 -9z"/>
<path d="M3066 687 c3 -10 9 -15 12 -12 3 3 0 11 -7 18 -10 9 -11 8 -5 -6z"/>
<path d="M2307 677 c-2 -7 -2 -30 2 -52 5 -30 11 -40 26 -42 11 -2 14 0 8 3
-16 7 -17 74 -2 74 6 0 4 7 -5 15 -18 18 -22 19 -29 2z"/>
<path d="M1306 671 c-3 -5 1 -11 9 -14 9 -4 12 -1 8 9 -6 16 -10 17 -17 5z"/>
<path d="M1977 672 c-4 -6 -13 -9 -20 -6 -9 3 -12 -5 -11 -23 1 -16 3 -36 3
-45 1 -10 6 -18 11 -18 6 0 8 13 5 29 -4 21 0 33 11 39 9 5 15 15 12 23 -3 9
-6 10 -11 1z"/>
<path d="M2120 662 c-18 -15 -22 -25 -16 -46 9 -35 45 -50 69 -28 23 20 18 61
-9 79 -19 12 -24 11 -44 -5z m48 -29 c2 -11 -4 -25 -12 -32 -13 -11 -17 -9
-28 14 -10 22 -9 28 3 36 20 12 33 6 37 -18z"/>
<path d="M3093 661 c0 -11 5 -18 9 -15 4 3 5 11 1 19 -7 21 -12 19 -10 -4z"/>
<path d="M1852 658 c-30 -30 -3 -82 40 -76 29 4 47 50 28 72 -15 19 -51 21
-68 4z m42 -4 c19 -7 21 -35 5 -51 -17 -17 -39 -4 -39 21 0 33 8 40 34 30z"/>
<path d="M2212 628 c3 -41 5 -43 36 -44 31 -1 32 0 32 43 0 48 -16 60 -18 13
0 -16 -4 -35 -8 -41 -11 -19 -34 21 -28 48 4 14 2 23 -5 23 -8 0 -11 -15 -9
-42z"/>
<path d="M1006 648 c3 -5 10 -6 15 -3 13 9 11 12 -6 12 -8 0 -12 -4 -9 -9z"/>
<path d="M2546 648 c3 -5 10 -6 15 -3 13 9 11 12 -6 12 -8 0 -12 -4 -9 -9z"/>
<path d="M2564 629 c-3 -6 -1 -16 5 -22 9 -9 10 -7 5 7 -6 15 -4 17 6 11 9 -5
11 -4 6 3 -9 15 -13 15 -22 1z"/>
<path d="M2393 615 c0 -8 4 -15 9 -15 4 0 8 4 8 9 0 6 -4 12 -8 15 -5 3 -9 -1
-9 -9z"/>
<path d="M3135 619 c-4 -6 -5 -12 -2 -15 2 -3 7 2 10 11 7 17 1 20 -8 4z"/>
<path d="M956 602 c-3 -5 1 -9 9 -9 8 0 12 4 9 9 -3 4 -7 8 -9 8 -2 0 -6 -4
-9 -8z"/>
<path d="M1270 590 c0 -5 5 -10 10 -10 6 0 10 5 10 10 0 6 -4 10 -10 10 -5 0
-10 -4 -10 -10z"/>
<path d="M3170 590 c0 -5 5 -10 11 -10 5 0 7 5 4 10 -3 6 -8 10 -11 10 -2 0
-4 -4 -4 -10z"/>
<path d="M1975 559 c-4 -6 -5 -12 -2 -15 2 -3 7 2 10 11 7 17 1 20 -8 4z"/>
<path d="M913 540 c-11 -16 -10 -18 2 -14 8 4 15 12 15 20 0 19 -3 18 -17 -6z"/>
<path d="M1725 549 c-4 -6 -5 -12 -2 -15 2 -3 7 2 10 11 7 17 1 20 -8 4z"/>
<path d="M2910 548 c0 -4 4 -8 9 -8 6 0 12 4 15 8 3 5 -1 9 -9 9 -8 0 -15 -4
-15 -9z"/>
<path d="M1980 530 c-9 -6 -10 -10 -3 -10 6 0 15 5 18 10 8 12 4 12 -15 0z"/>
<path d="M2936 532 c-3 -5 1 -9 9 -9 8 0 12 4 9 9 -3 4 -7 8 -9 8 -2 0 -6 -4
-9 -8z"/>
<path d="M1236 512 c-3 -5 1 -9 9 -9 8 0 15 4 15 9 0 4 -4 8 -9 8 -6 0 -12 -4
-15 -8z"/>
<path d="M2140 510 c0 -5 5 -10 11 -10 5 0 7 5 4 10 -3 6 -8 10 -11 10 -2 0
-4 -4 -4 -10z"/>
<path d="M1973 495 c0 -8 4 -12 9 -9 5 3 6 10 3 15 -9 13 -12 11 -12 -6z"/>
<path d="M2436 484 c-3 -9 -2 -22 2 -31 6 -10 9 -5 9 16 0 35 -2 38 -11 15z"/>
<path d="M872 474 c-7 -8 -8 -14 -3 -14 10 0 25 19 20 25 -2 1 -10 -3 -17 -11z"/>
<path d="M1713 475 c0 -8 4 -15 9 -15 4 0 8 4 8 9 0 6 -4 12 -8 15 -5 3 -9 -1
-9 -9z"/>
<path d="M1700 435 c0 -8 4 -15 10 -15 5 0 7 7 4 15 -4 8 -8 15 -10 15 -2 0
-4 -7 -4 -15z"/>
<path d="M829 413 c-13 -16 -12 -17 4 -4 16 13 21 21 13 21 -2 0 -10 -8 -17
-17z"/>
<path d="M1690 391 c0 -6 4 -13 10 -16 6 -3 7 1 4 9 -7 18 -14 21 -14 7z"/>
<path d="M2155 390 c3 -5 8 -10 11 -10 2 0 4 5 4 10 0 6 -5 10 -11 10 -5 0 -7
-4 -4 -10z"/>
<path d="M1697 345 c-4 -8 -3 -16 1 -19 4 -3 9 4 9 15 2 23 -3 25 -10 4z"/>
<path d="M2473 345 c0 -8 4 -12 9 -9 4 3 8 9 8 15 0 5 -4 9 -8 9 -5 0 -9 -7
-9 -15z"/>
<path d="M1975 331 c-3 -5 0 -13 6 -17 7 -4 9 -3 5 4 -3 5 0 13 6 15 9 4 10 6
1 6 -6 1 -14 -3 -18 -8z"/>
<path d="M2485 321 c-3 -5 -2 -12 3 -15 5 -3 9 1 9 9 0 17 -3 19 -12 6z"/>
<path d="M1675 311 c-6 -11 13 -26 22 -17 4 3 1 6 -6 6 -7 0 -9 5 -6 10 3 6 4
10 1 10 -3 0 -7 -4 -11 -9z"/>
<path d="M2176 283 c-6 -14 -5 -15 5 -6 7 7 10 15 7 18 -3 3 -9 -2 -12 -12z"/>
<path d="M2497 277 c-3 -8 1 -14 8 -14 7 0 11 6 8 14 -6 16 -10 16 -16 0z"/>
<path d="M2177 249 c7 -7 15 -10 18 -7 3 3 -2 9 -12 12 -14 6 -15 5 -6 -5z"/>
<path d="M2515 230 c-3 -5 -1 -10 4 -10 6 0 11 5 11 10 0 6 -2 10 -4 10 -3 0
-8 -4 -11 -10z"/>
<path d="M1670 209 c0 -5 5 -7 10 -4 6 3 10 8 10 11 0 2 -4 4 -10 4 -5 0 -10
-5 -10 -11z"/>
<path d="M2193 205 c-3 -9 -3 -18 -1 -21 3 -3 8 4 11 16 6 23 -1 27 -10 5z"/>
<path d="M2535 170 c-3 -5 -1 -10 4 -10 6 0 11 5 11 10 0 6 -2 10 -4 10 -3 0
-8 -4 -11 -10z"/>
<path d="M1659 150 c-3 -20 -4 -25 -13 -40 -7 -12 -6 -13 4 -3 13 12 25 53 15
53 -3 0 -6 -4 -6 -10z"/>
<path d="M2540 131 c0 -6 4 -13 10 -16 6 -3 7 1 4 9 -7 18 -14 21 -14 7z"/>
</g>
</svg>
