<?xml version="1.0" standalone="no"?>
<!DOCTYPE svg PUBLIC "-//W3C//DTD SVG 20010904//EN"
 "http://www.w3.org/TR/2001/REC-SVG-20010904/DTD/svg10.dtd">
<svg version="1.0" xmlns="http://www.w3.org/2000/svg"
 width="1025.000000pt" height="1025.000000pt" viewBox="0 0 1025.000000 1025.000000"
 preserveAspectRatio="xMidYMid meet">
<metadata>
Created by potrace 1.11, written by Peter Selinger 2001-2013
</metadata>
<g transform="translate(0.000000,1025.000000) scale(0.100000,-0.100000)"
fill="#000000" stroke="none">
<path d="M4470 10247 c-3 -3 -138 -8 -300 -12 -162 -4 -301 -8 -307 -8 -7 0
-13 -2 -13 -5 0 -2 41 -47 91 -100 164 -171 374 -424 522 -627 148 -203 358
-535 445 -702 20 -40 39 -73 42 -73 3 0 28 45 55 99 l49 100 -89 148 c-203
338 -410 631 -627 887 -64 75 -75 92 -60 97 45 17 1674 16 1701 0 7 -5 -10
-33 -51 -82 -212 -250 -416 -533 -585 -810 -160 -262 -358 -651 -459 -901
l-39 -97 -107 217 c-160 325 -249 480 -426 742 -244 361 -483 645 -829 983
l-101 98 -108 -7 c-128 -8 -132 -8 -139 -16 -3 -3 20 -27 52 -53 32 -27 127
-117 212 -199 429 -421 768 -870 1059 -1402 138 -253 247 -501 389 -884 3 -8
27 50 53 130 45 139 151 415 202 529 l24 53 33 -72 c49 -111 175 -444 206
-545 25 -83 45 -127 45 -97 0 7 29 91 65 187 319 851 879 1666 1563 2274 45
41 82 77 82 80 0 3 -19 7 -43 8 -23 1 -79 5 -125 9 l-82 6 -146 -144 c-521
-510 -957 -1125 -1250 -1760 -33 -71 -62 -128 -66 -128 -3 0 -20 35 -37 78
-28 72 -51 127 -115 265 l-27 58 77 147 c256 490 590 958 984 1380 58 62 106
117 108 122 2 4 -52 9 -120 9 -68 1 -136 4 -153 7 -38 6 -1649 16 -1655 11z"/>
<path d="M2862 10028 l-92 -82 -1 -95 c-6 -426 10 -690 62 -1056 56 -396 159
-804 298 -1185 28 -74 49 -135 48 -136 -1 -1 -47 17 -102 40 -55 23 -149 59
-208 81 l-108 39 -39 126 c-49 158 -132 477 -165 640 -32 157 -80 478 -95 635
-6 66 -13 134 -15 150 -3 17 -8 122 -11 235 -4 113 -8 207 -10 209 -2 2 -34
-25 -72 -60 -37 -35 -189 -179 -337 -320 -314 -299 -891 -879 -1185 -1193
-113 -120 -206 -221 -208 -225 -1 -4 91 -11 205 -15 114 -3 224 -8 243 -11 19
-2 87 -9 150 -15 171 -17 485 -65 650 -99 135 -29 531 -130 574 -147 16 -6 18
-4 12 11 -4 10 -19 58 -33 107 -30 101 -7 86 -223 142 -310 81 -764 157 -1080
182 -47 3 -86 8 -88 9 -9 8 827 853 1098 1110 l125 118 8 -84 c60 -633 171
-1137 372 -1699 35 -96 80 -213 100 -260 20 -47 39 -91 42 -97 3 -7 -51 7
-123 33 -390 140 -808 249 -1129 294 -181 25 -294 39 -360 45 -38 3 -110 10
-160 14 -123 11 -349 15 -611 12 l-90 -1 -82 -92 c-45 -51 -82 -96 -82 -100 0
-5 12 -6 28 -3 48 11 633 14 762 5 559 -41 1010 -128 1490 -289 236 -79 339
-120 573 -224 92 -42 167 -73 167 -70 0 4 -15 34 -34 68 -77 137 -284 610
-272 622 7 7 22 1 256 -100 102 -44 241 -109 309 -144 68 -35 125 -62 126 -61
1 2 -33 80 -75 175 -145 321 -258 644 -339 969 -97 389 -143 684 -171 1089 -9
140 -5 725 6 763 3 12 2 22 -3 22 -4 0 -50 -37 -101 -82z"/>
<path d="M7293 10003 c8 -105 3 -723 -7 -773 -2 -14 -7 -59 -11 -100 -37 -452
-152 -970 -317 -1435 -51 -143 -177 -444 -229 -547 -16 -32 -27 -58 -24 -58 2
0 72 34 153 75 151 75 477 218 526 231 l26 6 -54 -128 c-99 -236 -123 -288
-195 -431 -39 -79 -69 -143 -66 -143 3 0 36 15 73 34 69 34 213 98 362 159
152 62 501 175 686 221 398 100 704 148 1104 175 145 10 540 11 685 2 55 -4
102 -6 104 -4 6 4 -39 60 -105 132 l-59 63 -260 0 c-566 -1 -1049 -63 -1569
-203 -194 -52 -488 -147 -628 -204 -12 -5 -5 20 29 102 45 109 54 132 137 365
89 248 188 623 240 908 48 262 96 625 96 728 0 23 5 42 11 42 13 0 1219 -1205
1219 -1218 0 -5 -39 -13 -87 -17 -248 -19 -697 -89 -940 -146 -162 -38 -318
-82 -329 -93 -10 -9 -75 -198 -70 -203 1 -1 49 12 106 28 158 44 361 95 499
124 331 69 828 125 1114 125 69 0 117 4 115 9 -16 45 -1146 1194 -1513 1538
-242 227 -281 263 -286 263 -3 0 -5 -21 -4 -47 0 -66 -15 -390 -20 -433 -2
-19 -9 -82 -15 -140 -44 -424 -141 -889 -266 -1271 l-35 -107 -117 -42 c-64
-24 -153 -58 -197 -77 -44 -19 -86 -37 -94 -40 -9 -4 -12 -2 -7 6 17 27 150
426 187 561 108 390 177 775 204 1130 3 41 8 97 11 124 7 67 13 539 7 604 -5
52 -6 54 -95 132 -50 44 -93 80 -97 80 -4 0 -3 -48 2 -107z"/>
<path d="M66 7100 c-3 -14 -8 -72 -11 -130 l-6 -105 198 -196 c209 -206 292
-282 463 -420 372 -301 738 -532 1183 -748 l197 -96 -62 -24 c-35 -14 -128
-54 -207 -89 l-143 -65 -52 26 c-538 274 -1078 654 -1500 1058 -52 49 -96 89
-98 89 -3 0 -5 -6 -5 -12 -24 -690 -24 -1830 0 -2526 1 -20 9 -14 129 98 408
381 796 661 1326 957 l54 30 -96 52 -96 52 -32 -17 c-259 -134 -744 -469
-1022 -707 -53 -44 -82 -63 -87 -56 -16 27 -17 1681 0 1707 4 7 42 -18 98 -66
437 -368 931 -682 1470 -931 83 -39 188 -84 232 -101 45 -17 81 -35 81 -38 0
-4 -57 -33 -128 -66 -617 -285 -1188 -684 -1696 -1187 l-209 -207 7 -73 c3
-41 7 -98 8 -126 1 -29 5 -53 9 -53 3 0 37 35 75 78 529 600 1254 1126 2014
1460 129 57 431 172 451 172 31 0 -13 20 -116 53 -129 40 -417 150 -525 199
l-74 34 129 53 c186 77 395 154 503 187 51 15 89 30 85 34 -4 4 -37 17 -73 30
-601 211 -1233 567 -1729 974 -214 175 -530 479 -683 656 -53 61 -57 64 -62
40z"/>
<path d="M10170 7113 c0 -14 -273 -299 -405 -423 -352 -331 -773 -641 -1175
-864 -156 -87 -518 -260 -640 -306 -54 -21 -289 -109 -309 -116 -8 -2 58 -29
146 -59 157 -53 485 -180 540 -208 l27 -15 -39 -17 c-147 -63 -412 -164 -532
-203 -79 -26 -143 -49 -143 -53 0 -3 24 -13 53 -23 647 -227 1263 -579 1817
-1040 145 -121 522 -487 618 -601 27 -33 52 -58 55 -55 3 3 8 61 12 130 l7
125 -194 192 c-435 430 -831 729 -1347 1015 -142 79 -464 238 -482 238 -25 0
-4 19 39 35 147 55 470 208 687 327 374 205 789 491 1083 746 34 30 65 52 68
49 7 -6 12 -1248 7 -1534 -2 -106 -7 -193 -11 -193 -4 0 -48 35 -98 78 -181
152 -369 293 -591 440 -141 93 -434 272 -447 272 -3 0 -49 -23 -101 -51 l-96
-51 108 -60 c463 -257 932 -600 1299 -950 52 -50 96 -89 99 -87 27 27 26 2521
-1 2548 -2 3 -44 -33 -92 -80 -378 -371 -934 -769 -1434 -1029 l-125 -64 -110
51 c-60 29 -151 68 -202 88 -50 21 -91 39 -91 42 0 2 44 24 98 49 678 314
1265 728 1795 1268 l139 141 -6 95 c-3 52 -6 110 -6 128 0 17 -4 32 -10 32 -5
0 -10 -3 -10 -7z"/>
<path d="M2695 6332 c-19 -13 -10 -36 15 -42 l25 -6 3 -217 2 -217 25 0 25 0
0 204 c0 126 -4 207 -10 211 -21 13 -9 25 26 25 31 0 35 3 32 23 -3 20 -9 22
-68 24 -36 1 -70 -1 -75 -5z"/>
<path d="M2967 6334 c-4 -4 -7 -115 -7 -246 l0 -238 25 0 25 0 0 124 c0 73 -4
127 -10 131 -21 13 -9 25 25 25 41 0 38 11 39 -150 l1 -125 25 0 25 0 1 144
c1 164 -6 181 -71 181 l-34 0 -3 77 c-2 61 -6 78 -18 81 -9 1 -19 0 -23 -4z"/>
<path d="M3837 6334 c-4 -4 -7 -40 -7 -80 0 -68 -1 -72 -25 -78 -32 -8 -34
-43 -2 -48 21 -3 22 -7 25 -127 1 -71 7 -130 14 -138 15 -19 84 -17 92 3 9 22
-1 34 -30 34 -24 0 -24 0 -24 103 0 67 -4 107 -12 115 -9 9 -3 12 30 12 23 0
42 4 42 9 0 25 -14 41 -36 41 -22 0 -23 4 -26 77 -2 61 -6 78 -18 81 -9 1 -19
0 -23 -4z"/>
<path d="M3260 6173 c-8 -3 -18 -11 -22 -17 -13 -19 -9 -281 4 -294 7 -7 37
-12 68 -12 66 0 80 11 80 62 0 34 -3 38 -24 38 -18 0 -25 -6 -28 -22 -5 -34
-52 -32 -56 2 -2 14 -9 31 -14 38 -8 9 2 12 44 12 30 0 59 5 66 12 14 14 16
146 3 167 -9 15 -96 25 -121 14z m75 -93 c0 -41 -2 -45 -25 -45 -21 0 -25 5
-28 35 -2 19 -9 41 -15 48 -9 11 -3 13 29 10 l39 -3 0 -45z"/>
<path d="M3522 6164 c-17 -11 -21 -23 -18 -51 3 -38 15 -49 42 -39 15 6 15 9
-1 32 l-16 25 38 -3 c38 -3 38 -3 41 -50 l3 -48 -45 0 c-33 0 -48 -5 -54 -17
-11 -21 -9 -133 2 -151 12 -19 132 -16 140 4 12 31 7 292 -6 300 -24 15 -104
13 -126 -2z m88 -224 c0 -36 -3 -40 -24 -40 -24 0 -36 16 -36 50 0 10 -6 21
-12 23 -7 3 6 6 30 6 l42 1 0 -40z"/>
<path d="M4080 6172 c-8 -3 -18 -10 -22 -16 -13 -19 -9 -281 4 -294 7 -7 37
-12 68 -12 66 0 80 11 80 62 0 34 -3 38 -24 38 -18 0 -25 -6 -28 -22 -2 -17
-11 -24 -30 -26 -25 -3 -28 0 -28 25 0 16 -5 34 -12 41 -9 9 0 12 43 12 30 0
60 5 67 12 19 19 16 153 -4 172 -15 15 -78 20 -114 8z m75 -92 c0 -41 -2 -45
-25 -45 -21 0 -25 5 -28 35 -2 19 -9 41 -15 48 -9 11 -3 13 29 10 l39 -3 0
-45z"/>
<path d="M4344 6166 c-17 -13 -19 -28 -19 -165 -1 -149 -1 -151 21 -151 12 0
24 6 26 13 10 29 1 237 -12 252 -11 13 -5 15 54 15 64 0 67 1 64 23 -3 19 -9
22 -59 24 -35 2 -62 -2 -75 -11z"/>
<path d="M3483 5425 c-182 -49 -319 -177 -405 -377 -45 -106 -61 -190 -60
-318 1 -326 183 -608 441 -684 70 -21 192 -20 262 0 209 62 380 275 429 534
27 140 9 318 -46 462 -106 281 -378 448 -621 383z m264 -155 c188 -93 305
-327 290 -580 -13 -230 -124 -418 -296 -503 -58 -28 -75 -32 -151 -32 -77 0
-92 3 -154 34 -140 69 -251 225 -281 396 -58 323 79 618 328 707 77 28 180 19
264 -22z"/>
<path d="M4468 5307 c-2 -107 -7 -138 -21 -160 -13 -20 -16 -37 -11 -62 3 -19
10 -35 14 -35 13 0 83 60 106 91 31 42 46 119 42 215 l-3 79 -62 3 -61 3 -4
-134z"/>
<path d="M5130 5070 c-74 -16 -146 -58 -199 -116 -28 -31 -51 -60 -51 -64 0
-5 21 -25 47 -45 45 -34 48 -35 60 -18 57 80 120 115 216 121 109 7 210 -45
243 -125 18 -41 18 -137 2 -151 -7 -5 -87 -12 -178 -14 -139 -4 -174 -8 -220
-26 -84 -33 -148 -88 -187 -159 -84 -152 -17 -322 159 -403 166 -77 372 -42
483 82 75 83 79 101 80 388 0 287 -5 318 -64 396 -38 51 -120 107 -181 125
-52 15 -159 19 -210 9z m330 -640 c0 -126 -11 -162 -61 -205 -114 -95 -285
-94 -391 4 -40 37 -50 54 -55 88 -7 56 1 86 37 127 58 66 105 80 290 86 91 4
168 7 173 8 4 1 7 -48 7 -108z"/>
<path d="M6071 5065 c-30 -9 -69 -25 -87 -36 -56 -34 -138 -132 -164 -195 -24
-58 -25 -63 -28 -431 l-3 -373 60 0 59 0 4 353 c5 383 5 386 64 470 42 59 118
97 193 97 100 -1 182 -56 227 -155 24 -49 24 -54 24 -407 l0 -358 65 0 65 0 0
340 c0 369 -4 411 -52 502 -83 157 -264 239 -427 193z"/>
<path d="M7063 5065 c-83 -23 -126 -49 -181 -110 -29 -31 -52 -61 -52 -65 0
-5 21 -25 47 -45 l48 -37 15 24 c46 71 117 110 213 116 109 7 210 -45 243
-125 17 -40 18 -135 2 -151 -8 -8 -57 -12 -153 -12 -196 0 -282 -25 -380 -111
-85 -75 -113 -225 -61 -326 61 -119 195 -193 351 -193 164 0 300 80 358 209
19 43 21 65 21 306 1 287 -3 307 -60 386 -84 115 -267 175 -411 134z m347
-635 c0 -126 -11 -162 -61 -205 -76 -64 -172 -86 -268 -61 -131 34 -202 122
-177 220 10 39 61 91 114 117 41 21 67 24 212 29 91 4 168 7 173 8 4 1 7 -48
7 -108z"/>
<path d="M3105 3523 c-94 -49 -410 -181 -550 -231 -390 -138 -830 -245 -1202
-292 -335 -41 -404 -45 -809 -45 l-402 0 19 -25 c10 -14 46 -56 81 -94 l64
-69 219 -2 c700 -7 1361 102 2032 333 111 39 208 74 214 78 8 5 10 2 6 -7 -3
-8 -21 -50 -40 -94 -19 -44 -53 -133 -77 -197 l-42 -117 -107 -35 c-184 -60
-475 -136 -666 -175 -333 -67 -772 -117 -1092 -123 -73 -2 -132 -6 -130 -10 1
-4 78 -89 172 -190 334 -362 1576 -1589 1626 -1606 5 -2 9 43 9 106 0 461 94
1069 249 1622 16 57 29 105 28 106 -1 1 -47 -12 -102 -30 -117 -38 -107 -22
-166 -254 -72 -287 -135 -651 -165 -960 -10 -100 -22 -182 -26 -182 -13 0
-1218 1207 -1218 1219 0 6 19 11 43 11 106 0 439 45 776 105 224 40 630 149
859 231 233 83 256 92 365 137 82 34 107 41 102 29 -4 -10 -27 -73 -52 -142
-176 -493 -275 -932 -327 -1455 -24 -245 -28 -324 -28 -599 l0 -261 63 -59
c72 -66 128 -111 132 -105 2 2 0 49 -4 104 -7 107 -3 674 6 765 48 476 76 643
175 1040 42 170 156 521 217 670 61 149 125 293 159 362 19 37 34 70 34 73 0
3 -64 -27 -142 -66 -144 -72 -196 -96 -432 -195 l-128 -54 6 26 c13 49 155
372 231 524 42 84 75 153 73 155 -2 2 -25 -8 -53 -22z"/>
<path d="M7098 3533 c4 -10 34 -70 66 -133 32 -63 73 -149 91 -190 106 -244
155 -363 153 -366 -3 -3 -201 78 -363 149 -44 19 -127 59 -185 88 -58 30 -117
60 -133 67 l-27 12 23 -47 c31 -61 146 -325 185 -423 150 -380 291 -933 342
-1337 41 -335 45 -404 45 -809 l0 -402 26 19 c14 10 57 47 95 82 l69 65 -1
278 c0 154 -6 344 -13 424 -51 609 -148 1066 -343 1614 -27 76 -47 140 -45
142 3 3 44 -12 93 -32 582 -241 1282 -413 1902 -466 78 -6 142 -15 142 -18 0
-23 -1199 -1220 -1222 -1220 -3 0 -8 46 -12 102 -15 214 -78 627 -132 868 -43
190 -94 374 -107 386 -7 7 -50 24 -97 39 -47 15 -90 30 -96 32 -6 2 13 -85 43
-194 143 -528 226 -1113 228 -1596 0 -26 3 -47 6 -47 7 0 121 105 273 250 378
359 790 769 1122 1115 194 202 258 271 377 400 15 16 27 32 27 35 0 3 -24 5
-53 5 -81 1 -367 15 -417 20 -25 3 -110 12 -190 20 -400 43 -876 144 -1230
260 l-105 35 -24 68 c-13 37 -48 127 -78 201 -29 74 -51 136 -49 138 3 3 44
-10 93 -27 523 -189 954 -289 1493 -345 209 -22 384 -30 644 -30 l229 1 64 69
c35 38 73 81 83 96 l20 27 -308 -5 c-800 -14 -1486 105 -2233 387 -86 33 -379
159 -439 190 -36 18 -39 18 -32 3z"/>
<path d="M4846 2610 c-134 -384 -317 -781 -498 -1080 -38 -63 -75 -124 -81
-135 -7 -11 -54 -83 -106 -160 -268 -399 -587 -763 -985 -1123 -26 -24 -46
-45 -44 -47 2 -2 59 -6 128 -10 l125 -7 141 139 c449 440 814 925 1106 1468
62 116 86 163 170 345 l40 85 19 -40 c10 -22 36 -83 58 -135 46 -111 199 -426
269 -555 198 -364 446 -725 753 -1093 28 -34 49 -66 45 -70 -10 -9 -1712 -9
-1722 0 -4 4 18 36 48 70 133 152 311 388 458 608 96 143 280 449 280 465 0 5
-23 52 -51 104 l-51 94 -48 -91 c-224 -424 -613 -956 -967 -1325 -47 -49 -83
-90 -81 -92 18 -18 1803 -28 2263 -13 121 5 235 8 253 8 19 0 32 4 30 9 -1 5
-53 62 -114 127 -401 428 -694 844 -1008 1427 l-47 88 69 157 c38 86 78 178
87 205 19 51 30 58 40 26 15 -45 156 -330 232 -469 274 -495 583 -907 998
-1328 l210 -214 125 7 c69 4 127 9 130 12 3 3 -22 28 -55 55 -103 87 -475 467
-581 593 -390 466 -709 983 -928 1503 -31 74 -136 347 -146 382 -9 30 -4 40
-69 -155 -28 -83 -79 -222 -115 -310 -100 -248 -97 -242 -107 -222 -26 45
-165 405 -213 549 -30 89 -57 156 -60 148z"/>
</g>
</svg>
